<svg width="17" height="18" viewBox="0 0 17 18" fill="none" xmlns="http://www.w3.org/2000/svg">
<mask id="path-1-inside-1" fill="white">
<path fill-rule="evenodd" clip-rule="evenodd" d="M8.69978 17.2799C13.2057 17.2799 16.8585 13.6271 16.8585 9.12115C16.8585 4.6152 13.2057 0.962402 8.69978 0.962402C4.41261 0.962402 0.897752 4.2691 0.566544 8.47117L9.1687 8.47117L6.14175 5.44422C5.88791 5.19038 5.88791 4.77882 6.14175 4.52498C6.39559 4.27114 6.80715 4.27114 7.06099 4.52498L11.1976 8.66156C11.4514 8.9154 11.4514 9.32695 11.1976 9.5808L7.06098 13.7174C6.80714 13.9712 6.39558 13.9712 6.14174 13.7174C5.8879 13.4635 5.8879 13.052 6.14174 12.7981L9.1687 9.77117L0.566547 9.77117C0.897773 13.9732 4.41262 17.2799 8.69978 17.2799Z"/>
</mask>
<path fill-rule="evenodd" clip-rule="evenodd" d="M8.69978 17.2799C13.2057 17.2799 16.8585 13.6271 16.8585 9.12115C16.8585 4.6152 13.2057 0.962402 8.69978 0.962402C4.41261 0.962402 0.897752 4.2691 0.566544 8.47117L9.1687 8.47117L6.14175 5.44422C5.88791 5.19038 5.88791 4.77882 6.14175 4.52498C6.39559 4.27114 6.80715 4.27114 7.06099 4.52498L11.1976 8.66156C11.4514 8.9154 11.4514 9.32695 11.1976 9.5808L7.06098 13.7174C6.80714 13.9712 6.39558 13.9712 6.14174 13.7174C5.8879 13.4635 5.8879 13.052 6.14174 12.7981L9.1687 9.77117L0.566547 9.77117C0.897773 13.9732 4.41262 17.2799 8.69978 17.2799Z" fill="white"/>
<path d="M0.566544 8.47117L-0.430364 8.39259L-0.515378 9.47117H0.566543L0.566544 8.47117ZM9.1687 8.47117L9.1687 9.47117L11.5829 9.47118L9.87581 7.76407L9.1687 8.47117ZM6.14175 5.44422L5.43464 6.15132H5.43464L6.14175 5.44422ZM6.14175 4.52498L5.43464 3.81787L5.43464 3.81787L6.14175 4.52498ZM7.06099 4.52498L6.35388 5.23208L6.35388 5.23209L7.06099 4.52498ZM11.1976 8.66156L11.9047 7.95445V7.95445L11.1976 8.66156ZM11.1976 9.5808L10.4905 8.87369L10.4905 8.87369L11.1976 9.5808ZM7.06098 13.7174L7.76809 14.4245L7.06098 13.7174ZM6.14174 13.7174L6.84885 13.0103L6.84885 13.0103L6.14174 13.7174ZM6.14174 12.7981L5.43464 12.091L5.43464 12.091L6.14174 12.7981ZM9.1687 9.77117L9.87581 10.4783L11.5829 8.77118L9.1687 8.77117L9.1687 9.77117ZM0.566547 9.77117L0.566547 8.77117L-0.51538 8.77117L-0.430361 9.84975L0.566547 9.77117ZM15.8585 9.12115C15.8585 13.0748 12.6534 16.2799 8.69978 16.2799V18.2799C13.758 18.2799 17.8585 14.1794 17.8585 9.12115H15.8585ZM8.69978 1.9624C12.6534 1.9624 15.8585 5.16748 15.8585 9.12115H17.8585C17.8585 4.06291 13.758 -0.0375977 8.69978 -0.0375977V1.9624ZM1.56345 8.54975C1.85398 4.86374 4.93855 1.9624 8.69978 1.9624V-0.0375977C3.88666 -0.0375977 -0.0584792 3.67446 -0.430364 8.39259L1.56345 8.54975ZM0.566543 9.47117L9.1687 9.47117L9.1687 7.47117L0.566545 7.47117L0.566543 9.47117ZM9.87581 7.76407L6.84886 4.73711L5.43464 6.15132L8.46159 9.17828L9.87581 7.76407ZM6.84886 4.73711C6.98554 4.87379 6.98554 5.0954 6.84885 5.23209L5.43464 3.81787C4.79028 4.46224 4.79028 5.50696 5.43464 6.15132L6.84886 4.73711ZM6.84885 5.23209C6.71217 5.36877 6.49056 5.36877 6.35388 5.23208L7.7681 3.81787C7.12373 3.17351 6.07901 3.17351 5.43464 3.81787L6.84885 5.23209ZM6.35388 5.23209L10.4905 9.36866L11.9047 7.95445L7.76809 3.81787L6.35388 5.23209ZM10.4905 9.36866C10.3538 9.23198 10.3538 9.01037 10.4905 8.87369L11.9047 10.2879C12.549 9.64354 12.549 8.59882 11.9047 7.95445L10.4905 9.36866ZM10.4905 8.87369L6.35388 13.0103L7.76809 14.4245L11.9047 10.2879L10.4905 8.87369ZM6.35388 13.0103C6.49056 12.8736 6.71217 12.8736 6.84885 13.0103L5.43463 14.4245C6.079 15.0688 7.12372 15.0688 7.76809 14.4245L6.35388 13.0103ZM6.84885 13.0103C6.98554 13.1469 6.98553 13.3686 6.84885 13.5052L5.43464 12.091C4.79027 12.7354 4.79027 13.7801 5.43464 14.4245L6.84885 13.0103ZM6.84885 13.5052L9.87581 10.4783L8.46159 9.06407L5.43464 12.091L6.84885 13.5052ZM9.1687 8.77117L0.566547 8.77117L0.566546 10.7712L9.1687 10.7712L9.1687 8.77117ZM8.69978 16.2799C4.93856 16.2799 1.854 13.3786 1.56345 9.69259L-0.430361 9.84975C-0.0584566 14.5679 3.88667 18.2799 8.69978 18.2799V16.2799Z" fill="#5CDEFF" mask="url(#path-1-inside-1)"/>
</svg>
