<svg width="137" height="136" viewBox="0 0 137 136" fill="none" xmlns="http://www.w3.org/2000/svg">
<path d="M68.0689 49.1593C76.3733 49.1593 83.7248 45.3464 88.4897 39.3547C86.0392 33.363 81.1382 28.733 74.8758 26.6904C79.2322 24.2392 82.2273 19.6093 82.2273 14.1622C82.2273 6.40024 75.9649 0 68.0689 0C60.1728 0 53.9104 6.40024 53.9104 14.1622C53.9104 19.4731 56.9055 24.2392 61.2619 26.6904C55.1357 28.733 50.0986 33.363 47.6481 39.3547C52.4129 45.3464 59.7644 49.1593 68.0689 49.1593Z" fill="#5CDEFF"/>
<path d="M115.718 135.63C124.022 135.63 131.374 131.817 136.138 125.825C133.688 119.834 128.787 115.204 122.525 113.161C126.881 110.71 129.876 106.08 129.876 100.633C129.876 92.7348 123.478 86.4707 115.718 86.4707C107.822 86.4707 101.559 92.8709 101.559 100.633C101.559 105.944 104.554 110.71 108.911 113.161C102.785 115.204 97.7474 119.834 95.2969 125.825C100.062 131.817 107.413 135.63 115.718 135.63Z" fill="#5CDEFF"/>
<path d="M20.4208 135.63C28.7253 135.63 36.0767 131.817 40.8416 125.825C38.3911 119.834 33.4901 115.204 27.2277 113.161C31.5842 110.71 34.5792 106.08 34.5792 100.633C34.5792 92.7348 28.1807 86.4707 20.4208 86.4707C12.5248 86.4707 6.26238 92.8709 6.26238 100.769C6.26238 106.08 9.25743 110.846 13.6139 113.297C7.35149 115.204 2.4505 119.834 0 125.825C4.76485 131.817 12.1163 135.63 20.4208 135.63Z" fill="#5CDEFF"/>
<path d="M105.703 79.5331L90.298 52.2656L84.3719 55.6155L99.7773 82.883L105.703 79.5331Z" fill="#5CDEFF"/>
<path d="M51.8004 55.5775L45.8756 52.2256L30.4608 79.4868L36.3855 82.8388L51.8004 55.5775Z" fill="#5CDEFF"/>
<path d="M95.2973 94.7783H40.8418V101.587H95.2973V94.7783Z" fill="#5CDEFF"/>
</svg>
