<svg width="150" height="136" viewBox="0 0 150 136" fill="none" xmlns="http://www.w3.org/2000/svg">
<path d="M138.526 48.3107C138.577 48.3146 138.627 48.3169 138.678 48.3169C139.171 48.3162 139.644 48.1316 140.005 47.8C140.366 47.4684 140.588 47.0141 140.625 46.5279L141.915 29.9294C141.934 29.6749 141.903 29.419 141.823 29.1764C141.742 28.9338 141.614 28.7094 141.446 28.516C141.278 28.3225 141.073 28.164 140.842 28.0494C140.612 27.9348 140.361 27.8664 140.104 27.8482L122.063 26.5713C121.807 26.5532 121.55 26.5852 121.306 26.6656C121.063 26.746 120.837 26.8731 120.643 27.0398C120.449 27.2064 120.29 27.4093 120.175 27.6369C120.06 27.8644 119.992 28.1122 119.973 28.366C119.955 28.6198 119.987 28.8747 120.068 29.1161C120.15 29.3575 120.278 29.5808 120.446 29.7731C120.614 29.9654 120.819 30.1229 121.049 30.2368C121.278 30.3507 121.529 30.4186 121.785 30.4368L134.757 31.3545L110.979 49.6638L92.96 35.601C92.5894 35.3117 92.1258 35.1649 91.6546 35.1876C91.1833 35.2104 90.7363 35.4011 90.3958 35.7247L71.926 53.2789C71.7376 53.4543 71.5863 53.665 71.4806 53.8987C71.3749 54.1324 71.3171 54.3846 71.3103 54.6406C71.3036 54.8966 71.3482 55.1514 71.4415 55.3902C71.5349 55.629 71.675 55.8472 71.8539 56.032C72.0329 56.2168 72.247 56.3647 72.484 56.467C72.7209 56.5693 72.976 56.6241 73.2344 56.6281C73.4929 56.6322 73.7496 56.5854 73.9897 56.4905C74.2298 56.3957 74.4485 56.2546 74.6333 56.0755L91.8756 39.688L109.76 53.6458C110.103 53.9136 110.527 54.0599 110.964 54.0613C111.401 54.0628 111.825 53.9194 112.17 53.6539L137.674 34.0174L136.725 46.2304C136.705 46.4842 136.736 46.7393 136.816 46.9813C136.896 47.2232 137.023 47.4471 137.19 47.6403C137.358 47.8335 137.562 47.9921 137.791 48.1072C138.02 48.2222 138.27 48.2914 138.526 48.3107V48.3107Z" fill="#5CDEFF"/>
<path d="M147.659 131.733H142.377V64.8526C142.375 64.5967 142.322 64.3438 142.223 64.1082C142.123 63.8726 141.977 63.659 141.794 63.4795C141.612 63.3 141.395 63.1582 141.158 63.0622C140.92 62.9662 140.666 62.9179 140.41 62.92H119.851C119.6 62.9201 119.352 62.9707 119.121 63.0688C118.89 63.1669 118.681 63.3104 118.507 63.4909C118.333 63.6713 118.198 63.8848 118.108 64.1188C118.019 64.3528 117.977 64.6023 117.987 64.8526V131.733H104.979V77.4359C104.979 76.3602 104.114 75.2544 103.036 75.2544H82.4774C81.4 75.2544 80.5889 76.3602 80.5889 77.4359V131.733H67.5809V100.869C67.584 100.616 67.5365 100.366 67.4412 100.132C67.3459 99.8979 67.2048 99.6852 67.026 99.5064C66.8473 99.3276 66.6346 99.1863 66.4005 99.0906C66.1663 98.9949 65.9153 98.9469 65.6623 98.9493H45.1028C44.8501 98.947 44.5995 98.9951 44.3658 99.0909C44.132 99.1866 43.9198 99.3281 43.7416 99.507C43.5635 99.6859 43.423 99.8986 43.3284 100.132C43.2338 100.366 43.1871 100.617 43.191 100.869V131.733H2.65029C2.1328 131.733 1.63651 131.938 1.27059 132.303C0.904668 132.668 0.699097 133.164 0.699097 133.68C0.699097 134.197 0.904668 134.692 1.27059 135.057C1.63651 135.423 2.1328 135.628 2.65029 135.628H147.659C148.177 135.628 148.673 135.423 149.039 135.057C149.405 134.692 149.611 134.197 149.611 133.68C149.611 133.164 149.405 132.668 149.039 132.303C148.673 131.938 148.177 131.733 147.659 131.733Z" fill="#5CDEFF"/>
<path d="M13.2832 19.4502V23.0429C13.2832 26.9132 16.1808 30.0619 19.9248 30.0619C23.6688 30.0619 26.5664 26.9132 26.5664 23.0429V19.4502C26.5664 18.5485 26.3946 17.6557 26.0608 16.8226C25.7271 15.9896 25.2378 15.2327 24.6211 14.5951C24.0044 13.9575 23.2722 13.4517 22.4664 13.1066C21.6606 12.7616 20.797 12.584 19.9248 12.584C19.0526 12.584 18.189 12.7616 17.3832 13.1066C16.5774 13.4517 15.8452 13.9575 15.2285 14.5951C14.6118 15.2327 14.1225 15.9896 13.7888 16.8226C13.455 17.6557 13.2832 18.5485 13.2832 19.4502V19.4502Z" fill="#5CDEFF"/>
<path d="M0.933537 75.2823C1.21157 75.5404 1.53982 75.7401 1.8984 75.8693C2.25697 75.9985 2.63839 76.0544 3.01953 76.0337H3.05864C3.44149 76.044 3.82242 75.9769 4.17808 75.8367C4.53374 75.6965 4.85665 75.486 5.12702 75.2183C5.39739 74.9506 5.60953 74.6312 5.75043 74.2797C5.89133 73.9282 5.95803 73.552 5.94644 73.1742V55.13C5.94644 54.8765 5.99703 54.6255 6.09531 54.3913C6.19359 54.1571 6.33763 53.9444 6.51923 53.7651C6.70083 53.5859 6.91641 53.4437 7.15368 53.3467C7.39095 53.2497 7.64525 53.1998 7.90206 53.1998C8.15888 53.1998 8.41318 53.2497 8.65045 53.3467C8.88771 53.4437 9.1033 53.5859 9.2849 53.7651C9.46649 53.9444 9.61054 54.1571 9.70882 54.3913C9.8071 54.6255 9.85768 54.8765 9.85768 55.13V66.0757C9.85768 66.1619 9.91179 66.1667 9.91472 66.2564L10.0272 68.9564H30.5654L30.7176 67.3328V55.13C30.7176 54.618 30.9237 54.1271 31.2904 53.7651C31.6572 53.4031 32.1546 53.1998 32.6733 53.1998C33.1919 53.1998 33.6893 53.4031 34.0561 53.7651C34.4228 54.1271 34.6289 54.618 34.6289 55.13V66.0634C34.6289 66.1899 34.6615 66.3208 34.6569 66.4536L34.6289 67.384V73.308C34.6289 73.6882 34.7048 74.0647 34.8522 74.416C34.9996 74.7673 35.2157 75.0864 35.4881 75.3553C35.7604 75.6241 36.0838 75.8374 36.4397 75.9829C36.7956 76.1284 37.1771 76.2033 37.5623 76.2033C37.9475 76.2033 38.329 76.1284 38.6849 75.9829C39.0408 75.8374 39.3642 75.6241 39.6366 75.3553C39.9089 75.0864 40.125 74.7673 40.2724 74.416C40.4199 74.0647 40.4957 73.6882 40.4957 73.308V46.1498C40.4957 46.0855 40.5039 45.9841 40.5107 45.9195C40.7082 43.9991 40.1296 42.0793 38.9008 40.5776C37.6721 39.0759 35.8924 38.1136 33.9486 37.8999C33.7032 37.8752 33.4532 37.752 33.2081 37.752H29.2675L21.61 44.955C21.5715 44.9904 21.5285 45.1066 21.4884 45.1384C21.4359 45.1796 21.3857 45.232 21.3303 45.2671C21.2761 45.302 21.22 45.3342 21.1625 45.3636C21.1051 45.3925 21.0497 45.4257 20.9904 45.4485C20.9303 45.4708 20.8692 45.49 20.8072 45.5061C20.7479 45.5228 20.6892 45.5418 20.6283 45.5531C20.5673 45.5643 20.5021 45.5685 20.4386 45.5737C20.375 45.5788 20.317 45.5859 20.2551 45.5852C20.1918 45.5833 20.1287 45.5782 20.066 45.5698C20.0044 45.5634 19.9438 45.5582 19.8828 45.5463C19.8219 45.5344 19.76 45.5141 19.698 45.4939C19.6361 45.4736 19.5804 45.4579 19.5224 45.434C19.4622 45.4062 19.4036 45.3752 19.3467 45.3414C19.2919 45.3124 19.2372 45.2771 19.1837 45.242C19.1303 45.2069 19.0768 45.1426 19.0247 45.0992C18.9859 45.067 18.9438 44.9673 18.907 44.9319L11.5467 37.752H7.33754C5.37599 37.7881 3.5093 38.5918 2.14798 39.9861C0.764271 41.3787 -0.00748485 43.2535 5.47273e-05 45.204C5.47273e-05 45.4466 0.0244997 45.7027 0.0492709 45.9455C0.0557896 46.0099 0.0795831 46.0848 0.0795831 46.1498V73.3116C0.0755529 73.6805 0.149398 74.0463 0.296419 74.3856C0.44344 74.7249 0.660416 75.0303 0.933537 75.2823V75.2823Z" fill="#5CDEFF"/>
<path d="M25.2651 123.044C26.1533 123.029 27.0013 122.673 27.6331 122.052C28.2648 121.431 28.6319 120.592 28.658 119.708L30.0619 72.708H9.7876L11.187 119.721C11.216 120.599 11.5844 121.433 12.2156 122.048C12.8468 122.663 13.6922 123.012 14.5757 123.023C15.0196 123.024 15.4594 122.939 15.87 122.771C16.2806 122.603 16.6539 122.356 16.9685 122.045C17.2832 121.733 17.5329 121.363 17.7036 120.955C17.8743 120.548 17.9624 120.111 17.9631 119.669V79.497C17.9631 78.9819 18.1688 78.4878 18.535 78.1235C18.9011 77.7593 19.3978 77.5546 19.9157 77.5546C20.4335 77.5546 20.9302 77.7593 21.2963 78.1235C21.6625 78.4878 21.8682 78.9819 21.8682 79.497V119.669C21.8702 120.565 22.2289 121.422 22.8656 122.055C23.5023 122.688 24.3652 123.043 25.2651 123.044V123.044Z" fill="#5CDEFF"/>
<path d="M83.1946 19.9248C83.1946 15.9841 82.0261 12.1318 79.8367 8.85521C77.6474 5.5786 74.5356 3.02479 70.8948 1.51672C67.2541 0.00865424 63.2479 -0.385941 59.3829 0.382834C55.5178 1.15161 51.9676 3.04923 49.181 5.83573C46.3945 8.62222 44.4968 12.1724 43.728 16.0375C42.9592 19.9025 43.3537 23.9087 44.8617 27.5494C46.3697 31.1902 48.9235 34.3021 52.2 36.4915C55.4766 38.6809 59.3288 39.8495 63.2696 39.8496C68.5521 39.8436 73.6167 37.7425 77.3521 34.0072C81.0875 30.2719 83.1886 25.2074 83.1946 19.9248ZM72.5269 10.3559L64.9117 21.073V21.1504H68.8694C69.3852 21.1504 69.8799 21.3553 70.2447 21.7201C70.6094 22.0848 70.8144 22.5796 70.8144 23.0954C70.8144 23.6112 70.6094 24.1059 70.2447 24.4707C69.8799 24.8354 69.3852 25.0403 68.8694 25.0403H64.8861L64.8703 27.6336H68.8678C69.3836 27.6336 69.8783 27.8385 70.2431 28.2033C70.6078 28.568 70.8127 29.0627 70.8127 29.5786C70.8127 30.0944 70.6078 30.5891 70.2431 30.9539C69.8783 31.3186 69.3836 31.5235 68.8678 31.5235H64.8482L64.8417 32.542C64.8394 32.7946 64.7872 33.0443 64.6881 33.2767C64.589 33.509 64.4449 33.7195 64.2642 33.896C64.0834 34.0725 63.8696 34.2115 63.6349 34.305C63.4002 34.3985 63.1494 34.4447 62.8968 34.441H62.8848C62.6324 34.4465 62.3814 34.4015 62.1466 34.3086C61.9119 34.2156 61.6981 34.0766 61.518 33.8997C61.3378 33.7228 61.1949 33.5116 61.0977 33.2786C61.0004 33.0456 60.9508 32.7955 60.9518 32.543L60.9583 31.5235H57.1981C56.6822 31.5235 56.1875 31.3186 55.8228 30.9539C55.458 30.5891 55.2531 30.0944 55.2531 29.5786C55.2531 29.0627 55.458 28.568 55.8228 28.2033C56.1875 27.8385 56.6822 27.6336 57.1981 27.6336H60.9803L60.9962 25.0403H57.199C56.6832 25.0403 56.1885 24.8354 55.8237 24.4707C55.459 24.1059 55.2541 23.6112 55.2541 23.0954C55.2541 22.5796 55.459 22.0848 55.8237 21.7201C56.1885 21.3553 56.6832 21.1504 57.199 21.1504H61.0205V21.0208L53.4433 10.3362C53.2959 10.1295 53.1909 9.89564 53.1344 9.64814C53.0779 9.40065 53.071 9.14441 53.1141 8.89423C53.1572 8.64405 53.2494 8.4049 53.3855 8.19059C53.5216 7.97628 53.6988 7.79105 53.9069 7.64563C54.3278 7.34766 54.8499 7.2291 55.3583 7.31603C55.8667 7.40296 56.3197 7.68826 56.6178 8.10918L62.9853 17.102L69.3514 8.10918C69.498 7.89824 69.6849 7.71843 69.9013 7.58011C70.1177 7.44179 70.3594 7.34771 70.6124 7.3033C70.8654 7.25888 71.1246 7.26502 71.3752 7.32135C71.6258 7.37768 71.8628 7.48308 72.0724 7.63149C72.2821 7.77989 72.4602 7.96834 72.5967 8.18597C72.7331 8.4036 72.825 8.6461 72.8672 8.89946C72.9094 9.15282 72.901 9.41203 72.8425 9.66212C72.784 9.91222 72.6765 10.1482 72.5262 10.3566L72.5269 10.3559Z" fill="#5CDEFF"/>
</svg>
