<svg width="16" height="16" viewBox="0 0 16 16" fill="none" xmlns="http://www.w3.org/2000/svg">
<path fill-rule="evenodd" clip-rule="evenodd" d="M8.17097 15.4383H1.06695C0.614683 15.4383 0.248291 15.0716 0.248291 14.6195V1.42159C0.248291 0.9693 0.614741 0.602783 1.06695 0.602783H14.2625C14.7146 0.602783 15.0811 0.9693 15.0811 1.42159V14.6195C15.0811 15.0717 14.7145 15.4383 14.2625 15.4383H10.4827V9.69319H12.4107L12.6994 7.45421H10.4827V6.02476C10.4827 5.37652 10.6627 4.93477 11.5921 4.93477L12.7775 4.93425V2.93169C12.5725 2.9044 11.8688 2.84344 11.0501 2.84344C9.34105 2.84344 8.17097 3.88686 8.17097 5.80302V7.45421H6.23799V9.69319H8.17097V15.4383Z" fill="white"/>
</svg>
