<svg width="14" height="14" viewBox="0 0 14 14" fill="none" xmlns="http://www.w3.org/2000/svg">
<path fill-rule="evenodd" clip-rule="evenodd" d="M13.6478 13.2021H10.6427V8.85599C10.6427 7.71841 10.1726 6.94182 9.13897 6.94182C8.34833 6.94182 7.90863 7.46589 7.70398 7.97095C7.62723 8.15224 7.63923 8.40476 7.63923 8.65729V13.2021H4.66215C4.66215 13.2021 4.70052 5.50343 4.66215 4.80362H7.63923V6.12169C7.8151 5.54538 8.76642 4.72287 10.2845 4.72287C12.168 4.72287 13.6478 5.93091 13.6478 8.53222V13.2021ZM1.65148 3.75312H1.6323C0.672985 3.75312 0.0510254 3.1111 0.0510254 2.2973C0.0510254 1.46767 0.691369 0.839111 1.66987 0.839111C2.64758 0.839111 3.24875 1.46609 3.26794 2.29493C3.26794 3.10873 2.64758 3.75312 1.65148 3.75312ZM0.393973 4.80362H3.0441V13.2021H0.393973V4.80362Z" fill="white"/>
</svg>
