<svg width="18" height="24" viewBox="0 0 18 24" fill="none" xmlns="http://www.w3.org/2000/svg">
<path fill-rule="evenodd" clip-rule="evenodd" d="M9 23.1401L9.65773 22.5658C15.1887 17.7362 18 13.5193 18 9.8125C18 4.56316 13.9029 0.8125 9 0.8125C4.09705 0.8125 0 4.56316 0 9.8125C0 13.5193 2.81131 17.7362 8.34227 22.5658L9 23.1401ZM9 20.4759C4.30661 16.246 2 12.6617 2 9.8125C2 5.7091 5.16411 2.8125 9 2.8125C12.8359 2.8125 16 5.7091 16 9.8125C16 12.6617 13.6934 16.246 9 20.4759ZM9 4.8125C11.7614 4.8125 14 7.05108 14 9.8125C14 12.5739 11.7614 14.8125 9 14.8125C6.23858 14.8125 4 12.5739 4 9.8125C4 7.05108 6.23858 4.8125 9 4.8125ZM6 9.8125C6 8.15565 7.34315 6.8125 9 6.8125C10.6569 6.8125 12 8.15565 12 9.8125C12 11.4694 10.6569 12.8125 9 12.8125C7.34315 12.8125 6 11.4694 6 9.8125Z" fill="#5CDEFF"/>
</svg>
