<svg width="139" height="156" viewBox="0 0 139 156" fill="none" xmlns="http://www.w3.org/2000/svg">
<path d="M60.487 73.373C61.5244 76.1684 63.2388 78.7313 65.2853 80.5476C65.2571 81.5176 65.2159 82.6362 65.1399 82.9641C64.9359 83.8331 64.248 84.4707 63.2953 84.6704C59.2174 85.5315 53.3926 89.8699 50.0353 94.5474C48.9241 96.0972 48.6789 98.289 49.4385 99.8785C50.0939 101.247 51.3569 102 52.9954 102H88.0053C89.646 102 90.909 101.247 91.5623 99.8773C92.3218 98.2879 92.0744 96.0949 90.9633 94.5486C87.6081 89.8698 81.7855 85.5315 77.7033 84.6704C76.7527 84.4707 76.0648 83.8331 75.8608 82.9607C75.787 82.6453 75.7458 81.5834 75.7154 80.5476C77.7445 78.7471 79.4481 76.2092 80.4898 73.4376C81.4578 73.0099 82.2347 71.7597 82.532 70.05C82.8011 68.3369 82.4409 66.8654 81.6531 66.128C81.6574 62.5169 81.5988 59.1304 80.2902 56.5675C78.7038 53.4601 75.6112 52.0091 70.4461 52C65.3895 52.0091 62.297 53.4601 60.7105 56.5675C59.4106 59.1122 59.3433 62.4692 59.3476 66.128C58.5599 66.8666 58.1996 68.3414 58.4709 70.0693C58.753 71.6916 59.4779 72.9044 60.487 73.373ZM60.6628 67.9398C61.1902 67.8377 61.5721 67.2648 61.5721 66.7043C61.5634 63.024 61.5569 59.8463 62.6702 57.6612C63.3994 56.2328 65.001 54.3337 70.5503 54.3235C75.9997 54.3337 77.6013 56.2328 78.3305 57.6612C79.4438 59.8463 79.4373 63.024 79.4286 66.7951C79.4264 67.3556 79.6543 67.7617 80.1817 67.8649C80.2815 67.9773 80.5072 68.6137 80.3423 69.6541C80.16 70.7012 79.7498 71.2265 79.7954 71.2775C79.2615 71.2061 78.7884 71.5339 78.6148 72.0467C77.6859 74.8104 75.9259 77.4447 73.9054 79.0943C73.6276 79.3212 73.4714 79.8193 73.4822 80.1891C73.53 81.8772 73.5669 82.9437 73.7036 83.5155C74.1094 85.2581 75.4745 86.573 77.2671 86.9485C80.8197 87.6984 86.1671 91.7327 89.1859 95.9429C89.7827 96.7733 89.952 98.0462 89.5744 98.8393C89.3052 99.4031 88.7909 99.6765 88.0053 99.6765H52.9954C52.2098 99.6765 51.6955 99.4031 51.4264 98.8404C51.0466 98.0462 51.218 96.7733 51.8148 95.9417C54.8336 91.7327 60.181 87.6984 63.7315 86.9485C65.5262 86.573 66.8913 85.2581 67.2971 83.5189C67.4339 82.9437 67.4707 81.8772 67.5228 80.0439C67.5337 79.674 67.3753 79.3212 67.0953 79.0943C65.0727 77.4425 63.3126 74.8081 62.3859 72.0467C62.2297 71.5793 61.9519 71.2912 61.5157 71.2912C61.4723 71.2912 61.4267 71.2934 61.379 71.2991C61.2509 71.2265 60.8407 70.7012 60.6606 69.6734C60.4935 68.6137 60.7192 67.9773 60.6628 67.9398Z" fill="#5CDEFF"/>
<path d="M113.371 120.918C115.189 122.737 117.608 123.739 120.18 123.739C122.751 123.739 125.17 122.737 126.988 120.918C128.808 119.099 129.808 116.682 129.808 114.109C129.808 111.537 128.808 109.12 126.988 107.301C125.17 105.482 122.751 104.48 120.18 104.48C118.043 104.48 116.033 105.206 114.365 106.484L108.308 100.425C107.934 100.051 107.328 100.051 106.954 100.425C106.58 100.799 106.58 101.405 106.954 101.779L112.966 107.793C111.426 109.549 110.551 111.753 110.551 114.109C110.551 116.682 111.551 119.099 113.371 120.918ZM125.634 108.655C127.091 110.112 127.893 112.049 127.893 114.109C127.893 116.17 127.091 118.107 125.634 119.564C124.177 121.021 122.241 121.823 120.18 121.823C118.118 121.823 116.182 121.021 114.725 119.564C113.268 118.107 112.466 116.17 112.466 114.109C112.466 112.049 113.268 110.112 114.725 108.655C116.182 107.198 118.118 106.395 120.18 106.395C122.241 106.395 124.177 107.198 125.634 108.655Z" fill="#5CDEFF"/>
<path d="M70.8098 119.588C70.2805 119.588 69.8522 120.016 69.8522 120.546V136.478C65.0398 137.008 61.2708 141.05 61.2708 146.001C61.2708 151.31 65.5895 155.63 70.8996 155.63C76.2096 155.63 80.5284 151.31 80.5284 146.001C80.5284 140.989 76.6658 136.906 71.7674 136.46V120.546C71.7674 120.016 71.3391 119.588 70.8098 119.588ZM78.6131 146.001C78.6131 150.254 75.1529 153.714 70.8996 153.714C66.6463 153.714 63.186 150.254 63.186 146.001C63.186 141.82 66.5349 138.423 70.6885 138.309C70.73 138.314 70.7667 138.333 70.8098 138.333C70.8742 138.333 70.9304 138.308 70.9912 138.296C75.2014 138.347 78.6131 141.779 78.6131 146.001Z" fill="#5CDEFF"/>
<path d="M75.4127 145.204C75.5138 145.204 75.5966 145.122 75.5966 145.02V144.597C75.5966 144.526 75.5473 144.438 75.487 144.401L70.9247 141.594C70.8644 141.556 70.7658 141.556 70.7055 141.594L66.1433 144.401C66.083 144.438 66.0337 144.526 66.0337 144.597V145.02C66.0337 145.122 66.1161 145.204 66.2176 145.204H66.7693V149.25H66.2176C66.1161 149.25 66.0337 149.333 66.0337 149.434V150.169C66.0337 150.27 66.1161 150.353 66.2176 150.353H75.4127C75.5138 150.353 75.5966 150.27 75.5966 150.169V149.434C75.5966 149.333 75.5138 149.25 75.4127 149.25H74.861V145.204H75.4127ZM68.9761 148.882H67.8727V146.123C67.8727 145.819 68.1199 145.572 68.4244 145.572C68.7289 145.572 68.9761 145.819 68.9761 146.123V148.882ZM71.3668 148.882H70.2634V146.123C70.2634 145.819 70.5106 145.572 70.8151 145.572C71.1197 145.572 71.3668 145.819 71.3668 146.123V148.882ZM70.8151 145.02C70.1049 145.02 69.5278 144.443 69.5278 143.733C69.5278 143.023 70.1049 142.445 70.8151 142.445C71.5257 142.445 72.1024 143.023 72.1024 143.733C72.1024 144.443 71.5257 145.02 70.8151 145.02ZM73.7575 148.882H72.6541V146.123C72.6541 145.819 72.9013 145.572 73.2058 145.572C73.5104 145.572 73.7575 145.819 73.7575 146.123V148.882Z" fill="#5CDEFF"/>
<path d="M71.3668 143.454C71.3668 143.197 71.1914 142.982 70.9531 142.921V142.719H70.6772V142.916C70.4389 142.963 70.2634 143.13 70.2634 143.362C70.2634 143.638 70.4495 143.778 70.746 143.873C70.8839 143.919 70.9987 143.96 70.9987 144.061C70.9987 144.163 70.9166 144.236 70.8151 144.236C70.7136 144.236 70.6316 144.154 70.6316 144.052V144.006H70.2634C70.2634 144.263 70.4389 144.479 70.6772 144.54V144.742H70.9531V144.544C71.1914 144.497 71.3668 144.33 71.3668 144.098C71.3668 143.822 71.1848 143.683 70.8843 143.588C70.7247 143.537 70.6316 143.501 70.6316 143.4C70.6316 143.298 70.7136 143.224 70.8151 143.224C70.9166 143.224 70.9987 143.307 70.9987 143.408V143.454H71.3668Z" fill="#5CDEFF"/>
<path d="M119.648 113.461C119.921 114.819 120.192 116.169 120.462 117.518L120.491 117.522C120.745 116.173 120.999 114.824 121.257 113.455C121.365 113.467 121.472 113.471 121.576 113.492C122.129 113.601 122.599 113.844 122.898 114.347C123.005 114.524 123.061 114.726 123.061 114.933C123.061 115.871 123.062 116.809 123.064 117.747C123.065 117.802 123.051 117.856 123.022 117.903C122.993 117.95 122.951 117.987 122.901 118.009C122.703 118.102 122.5 118.202 122.289 118.248C121.46 118.425 120.618 118.413 119.777 118.38C119.346 118.363 118.917 118.327 118.503 118.204C118.341 118.152 118.185 118.083 118.038 117.998C117.924 117.936 117.875 117.829 117.875 117.688C117.88 116.819 117.889 115.951 117.874 115.082C117.863 114.498 118.123 114.082 118.598 113.781C118.913 113.583 119.276 113.472 119.648 113.461V113.461ZM121.276 115.598H122.315V115.426H121.276L121.276 115.598Z" fill="#5CDEFF"/>
<path d="M124.347 116.062C124.557 114.947 124.765 113.833 124.974 112.72C125.635 112.668 126.337 113.182 126.446 113.787C126.455 113.852 126.459 113.918 126.457 113.984C126.457 114.731 126.457 115.479 126.46 116.227C126.46 116.35 126.4 116.437 126.304 116.477C126.109 116.558 125.91 116.646 125.704 116.682C124.987 116.807 124.262 116.801 123.538 116.754C123.512 116.75 123.486 116.745 123.461 116.737C123.461 116.388 123.462 116.041 123.461 115.693C123.459 115.379 123.475 115.063 123.443 114.752C123.385 114.176 123.074 113.746 122.598 113.429C122.544 113.393 122.487 113.36 122.431 113.325C122.428 113.323 122.427 113.318 122.42 113.307C122.736 112.919 123.158 112.749 123.655 112.707C123.88 113.834 124.103 114.947 124.325 116.06L124.347 116.062Z" fill="#5CDEFF"/>
<path d="M116.871 116.061L117.501 112.709C117.975 112.733 118.379 112.892 118.72 113.247C118.673 113.271 118.639 113.287 118.604 113.304C118.071 113.568 117.649 113.939 117.472 114.529C117.432 114.67 117.412 114.817 117.412 114.964C117.405 115.514 117.409 116.065 117.409 116.615V116.76C117.378 116.766 117.346 116.771 117.314 116.774C116.674 116.795 116.035 116.793 115.404 116.663C115.225 116.626 115.051 116.551 114.883 116.477C114.762 116.423 114.711 116.319 114.712 116.175C114.718 115.473 114.727 114.771 114.712 114.07C114.7 113.527 114.957 113.168 115.41 112.919C115.654 112.785 115.948 112.711 116.178 112.722C116.401 113.832 116.625 114.945 116.849 116.059L116.871 116.061Z" fill="#5CDEFF"/>
<path d="M120.462 113.048C119.651 113.037 119.007 112.362 119.02 111.536C119.033 110.711 119.69 110.056 120.493 110.068C121.305 110.079 121.932 110.754 121.921 111.603C121.91 112.401 121.246 113.059 120.462 113.048Z" fill="#5CDEFF"/>
<path d="M116.856 112.534C116.237 112.529 115.755 112.018 115.761 111.375C115.767 110.77 116.27 110.263 116.862 110.266C117.477 110.268 117.971 110.786 117.965 111.421C117.958 112.035 117.457 112.538 116.856 112.534Z" fill="#5CDEFF"/>
<path d="M124.326 112.534C123.717 112.532 123.227 112.019 123.229 111.386C123.232 110.776 123.741 110.26 124.333 110.266C124.948 110.272 125.435 110.777 125.433 111.41C125.433 112.031 124.936 112.535 124.326 112.534Z" fill="#5CDEFF"/>
<path d="M120.871 113.693L120.508 114.089C120.607 114.195 120.701 114.301 120.801 114.402C120.851 114.453 120.871 114.5 120.855 114.575C120.734 115.163 120.618 115.753 120.482 116.343C120.43 116.09 120.377 115.837 120.326 115.584C120.259 115.247 120.196 114.909 120.124 114.572C120.116 114.543 120.116 114.513 120.124 114.484C120.132 114.455 120.148 114.429 120.171 114.409C120.271 114.308 120.365 114.2 120.469 114.088L120.11 113.695L120.49 113.417L120.871 113.693Z" fill="#5CDEFF"/>
<path d="M116.855 113.23L116.555 112.905C116.651 112.835 116.736 112.77 116.827 112.713C116.841 112.706 116.856 112.703 116.871 112.703C116.887 112.703 116.902 112.707 116.916 112.714C117.003 112.771 117.086 112.835 117.183 112.905L116.885 113.231C116.969 113.322 117.053 113.407 117.129 113.498C117.155 113.53 117.178 113.582 117.171 113.619C117.08 114.094 116.983 114.567 116.888 115.041C116.881 115.059 116.872 115.076 116.862 115.093C116.762 114.591 116.663 114.103 116.57 113.613C116.563 113.577 116.587 113.525 116.613 113.495C116.688 113.403 116.772 113.32 116.855 113.23Z" fill="#5CDEFF"/>
<path d="M124.338 115.076C124.287 114.823 124.235 114.571 124.184 114.318C124.141 114.102 124.103 113.885 124.054 113.67C124.034 113.584 124.05 113.525 124.113 113.465C124.189 113.395 124.255 113.314 124.331 113.233L124.034 112.907C124.13 112.837 124.221 112.77 124.315 112.707C124.326 112.702 124.339 112.7 124.351 112.7C124.364 112.701 124.376 112.705 124.387 112.711C124.476 112.771 124.562 112.836 124.66 112.907L124.363 113.233C124.449 113.326 124.535 113.41 124.609 113.503C124.637 113.54 124.649 113.587 124.644 113.633C124.552 114.115 124.455 114.596 124.359 115.077L124.338 115.076Z" fill="#5CDEFF"/>
<path d="M121.276 115.593V115.422H122.314V115.593H121.276Z" fill="#5CDEFF"/>
<path d="M30.2994 120.918C28.4814 122.737 26.063 123.739 23.4912 123.739C20.9193 123.739 18.5009 122.737 16.6829 120.918C14.863 119.099 13.8623 116.682 13.8623 114.109C13.8623 111.537 14.863 109.12 16.6829 107.301C18.5009 105.482 20.9193 104.48 23.4912 104.48C25.6281 104.48 27.6372 105.206 29.3059 106.484L35.3626 100.425C35.7367 100.051 36.3427 100.051 36.7168 100.425C37.0908 100.799 37.0908 101.405 36.7168 101.779L30.7045 107.793C32.2449 109.549 33.12 111.753 33.12 114.109C33.12 116.682 32.1193 119.099 30.2994 120.918ZM18.0371 108.655C16.58 110.112 15.7776 112.049 15.7776 114.109C15.7776 116.17 16.58 118.107 18.0371 119.564C19.4941 121.021 21.43 121.823 23.4912 121.823C25.5523 121.823 27.4882 121.021 28.9452 119.564C30.4023 118.107 31.2047 116.17 31.2047 114.109C31.2047 112.049 30.4023 110.112 28.9452 108.655C27.4882 107.198 25.5523 106.395 23.4912 106.395C21.43 106.395 19.4941 107.198 18.0371 108.655Z" fill="#5CDEFF"/>
<path d="M24.0229 113.461C23.7501 114.819 23.4791 116.169 23.2088 117.518L23.1795 117.522C22.9255 116.173 22.6715 114.824 22.4137 113.455C22.3058 113.467 22.1986 113.471 22.0948 113.492C21.5417 113.601 21.0713 113.844 20.7726 114.347C20.6658 114.524 20.6095 114.726 20.6098 114.933C20.6098 115.871 20.6089 116.809 20.607 117.747C20.6054 117.802 20.62 117.856 20.649 117.903C20.6779 117.95 20.72 117.987 20.7698 118.009C20.968 118.102 21.1702 118.202 21.3818 118.248C22.2104 118.425 23.0522 118.413 23.8941 118.38C24.3242 118.363 24.7536 118.327 25.1679 118.204C25.3297 118.152 25.4856 118.083 25.6331 117.998C25.7471 117.936 25.7959 117.829 25.7959 117.688C25.7908 116.819 25.7817 115.951 25.7971 115.082C25.8073 114.498 25.5479 114.082 25.0722 113.781C24.7573 113.583 24.395 113.472 24.0229 113.461V113.461ZM22.3946 115.598H21.356V115.426H22.3949L22.3946 115.598Z" fill="#5CDEFF"/>
<path d="M19.3231 116.062C19.1139 114.947 18.905 113.833 18.6964 112.72C18.0351 112.668 17.3331 113.182 17.2249 113.787C17.2153 113.852 17.2114 113.918 17.2135 113.984C17.2135 114.731 17.2135 115.479 17.2105 116.227C17.2105 116.35 17.2703 116.437 17.3668 116.477C17.5615 116.558 17.7606 116.646 17.9665 116.682C18.6838 116.807 19.4087 116.801 20.1328 116.754C20.1588 116.75 20.1845 116.745 20.2098 116.737C20.2098 116.388 20.2082 116.041 20.2098 115.693C20.2119 115.379 20.1958 115.063 20.227 114.752C20.2849 114.176 20.5959 113.746 21.0721 113.429C21.1267 113.393 21.1835 113.36 21.2391 113.325C21.2421 113.323 21.2433 113.318 21.2505 113.307C20.9341 112.919 20.5129 112.749 20.0153 112.707C19.7901 113.834 19.5675 114.947 19.3449 116.06L19.3231 116.062Z" fill="#5CDEFF"/>
<path d="M26.7994 116.061L26.1693 112.709C25.6952 112.733 25.2909 112.892 24.9504 113.247C24.9969 113.271 25.0318 113.287 25.0667 113.304C25.5999 113.568 26.0218 113.939 26.1984 114.529C26.2383 114.67 26.2586 114.817 26.2586 114.964C26.2654 115.514 26.2609 116.065 26.2609 116.615V116.76C26.2924 116.766 26.3243 116.771 26.3563 116.774C26.9965 116.795 27.6357 116.793 28.2663 116.663C28.4454 116.626 28.6192 116.551 28.7873 116.477C28.9081 116.423 28.9597 116.319 28.9583 116.175C28.952 115.473 28.9437 114.771 28.9583 114.07C28.9706 113.527 28.7134 113.168 28.2605 112.919C28.0167 112.785 27.7222 112.711 27.4929 112.722C27.2695 113.832 27.0457 114.945 26.8213 116.059L26.7994 116.061Z" fill="#5CDEFF"/>
<path d="M23.2085 113.048C24.0198 113.037 24.6637 112.362 24.6507 111.536C24.6377 110.711 23.9803 110.056 23.1775 110.068C22.366 110.079 21.7388 110.754 21.75 111.603C21.7607 112.401 22.4243 113.059 23.2085 113.048Z" fill="#5CDEFF"/>
<path d="M26.8145 112.534C27.433 112.529 27.9156 112.018 27.9094 111.375C27.9035 110.77 27.4004 110.263 26.8086 110.266C26.1934 110.268 25.6991 110.786 25.7056 111.421C25.7121 112.035 26.2132 112.538 26.8145 112.534Z" fill="#5CDEFF"/>
<path d="M19.3444 112.534C19.9534 112.532 20.4437 112.019 20.4412 111.386C20.4384 110.776 19.9294 110.26 19.3379 110.266C18.7224 110.272 18.2358 110.777 18.2369 111.41C18.2378 112.031 18.7347 112.535 19.3444 112.534Z" fill="#5CDEFF"/>
<path d="M22.7994 113.693L23.1621 114.089C23.0632 114.195 22.9693 114.301 22.8695 114.402C22.819 114.453 22.7997 114.5 22.815 114.575C22.9367 115.163 23.0528 115.753 23.1888 116.343C23.2407 116.09 23.2935 115.837 23.3442 115.584C23.4117 115.247 23.4745 114.909 23.5461 114.572C23.5546 114.543 23.5548 114.513 23.5465 114.484C23.5383 114.455 23.522 114.429 23.4996 114.409C23.3998 114.308 23.3054 114.2 23.2012 114.088L23.5608 113.695L23.1805 113.417L22.7994 113.693Z" fill="#5CDEFF"/>
<path d="M26.8152 113.23L27.1155 112.905C27.0196 112.835 26.9343 112.77 26.8438 112.713C26.8298 112.706 26.8144 112.703 26.7989 112.703C26.7835 112.703 26.7682 112.707 26.7545 112.714C26.667 112.771 26.5844 112.835 26.4877 112.905L26.7854 113.231C26.701 113.322 26.6172 113.407 26.5419 113.498C26.5158 113.53 26.4923 113.582 26.4995 113.619C26.5905 114.094 26.687 114.567 26.7828 115.041C26.7897 115.059 26.7983 115.076 26.8087 115.093C26.9087 114.591 27.0075 114.103 27.1008 113.613C27.1076 113.577 27.0834 113.525 27.0576 113.495C26.982 113.403 26.8982 113.32 26.8152 113.23Z" fill="#5CDEFF"/>
<path d="M19.3327 115.076C19.3838 114.823 19.4357 114.571 19.4864 114.318C19.5297 114.102 19.5674 113.885 19.6167 113.67C19.6367 113.584 19.6209 113.525 19.5571 113.465C19.4815 113.395 19.4152 113.314 19.3396 113.233L19.636 112.907C19.5408 112.837 19.4499 112.77 19.3555 112.707C19.344 112.702 19.3316 112.7 19.3192 112.7C19.3067 112.701 19.2946 112.705 19.2838 112.711C19.1945 112.771 19.1087 112.836 19.0105 112.907L19.3075 113.233C19.221 113.326 19.1359 113.41 19.0617 113.503C19.0336 113.54 19.0211 113.587 19.0268 113.633C19.1184 114.115 19.2159 114.596 19.3117 115.077L19.3327 115.076Z" fill="#5CDEFF"/>
<path d="M22.3948 115.593V115.422H21.3562V115.593H22.3948Z" fill="#5CDEFF"/>
<path d="M111.965 34.7098C113.783 32.8908 116.201 31.8892 118.773 31.8892C121.345 31.8892 123.763 32.8908 125.582 34.7098C127.401 36.5288 128.402 38.9463 128.402 41.519C128.402 44.0908 127.401 46.5083 125.582 48.3272C123.763 50.1462 121.345 51.1478 118.773 51.1478C116.636 51.1478 114.627 50.4216 112.959 49.1443L106.902 55.2028C106.528 55.5769 105.922 55.5769 105.548 55.2028C105.174 54.8288 105.174 54.2227 105.548 53.8487L111.56 47.8346C110.02 46.0791 109.144 43.8752 109.144 41.519C109.144 38.9463 110.145 36.5288 111.965 34.7098ZM124.227 46.9731C125.684 45.516 126.487 43.5792 126.487 41.519C126.487 39.4578 125.684 37.521 124.227 36.064C122.77 34.6069 120.834 33.8045 118.773 33.8045C116.712 33.8045 114.776 34.6069 113.319 36.064C111.862 37.521 111.06 39.4578 111.06 41.519C111.06 43.5792 111.862 45.516 113.319 46.9731C114.776 48.4301 116.712 49.2325 118.773 49.2325C120.834 49.2325 122.77 48.4301 124.227 46.9731Z" fill="#5CDEFF"/>
<path d="M70.4084 36.042C69.8791 36.042 69.4508 35.6137 69.4508 35.0843V19.152C64.6385 18.622 60.8694 14.5796 60.8694 9.62913C60.8694 4.31999 65.1881 0.000305176 70.4982 0.000305176C75.8083 0.000305176 80.127 4.31999 80.127 9.62913C80.127 14.6411 76.2644 18.7237 71.3661 19.1703V35.0843C71.3661 35.6137 70.9378 36.042 70.4084 36.042ZM78.2117 9.62913C78.2117 5.37584 74.7515 1.9156 70.4982 1.9156C66.2449 1.9156 62.7847 5.37584 62.7847 9.62913C62.7847 13.8101 66.1335 17.2065 70.2871 17.3213C70.3286 17.3158 70.3653 17.2968 70.4084 17.2968C70.4728 17.2968 70.5291 17.3214 70.5899 17.3334C74.8 17.2829 78.2117 13.8511 78.2117 9.62913Z" fill="#5CDEFF"/>
<path d="M65.8154 8.09552C65.7142 8.09552 65.6315 8.01313 65.6315 7.91162L65.6315 7.48864C65.6315 7.41766 65.6808 7.32975 65.7411 7.29224L70.3033 4.48517C70.3636 4.44765 70.4622 4.44765 70.5225 4.48517L75.0847 7.29224C75.1451 7.32975 75.1943 7.41766 75.1943 7.48864L75.1943 7.91162C75.1943 8.01313 75.1119 8.09552 75.0104 8.09552L74.4587 8.09552L74.4587 12.1413L75.0104 12.1413C75.1119 12.1413 75.1943 12.2241 75.1943 12.3252L75.1943 13.0609C75.1943 13.162 75.1119 13.2448 75.0104 13.2448L65.8154 13.2448C65.7142 13.2448 65.6315 13.162 65.6315 13.0609L65.6315 12.3252C65.6315 12.2241 65.7142 12.1413 65.8154 12.1413L66.3671 12.1413L66.3671 8.09552L65.8154 8.09552ZM72.2519 11.7735L73.3553 11.7735L73.3553 9.01503C73.3553 8.71048 73.1082 8.46332 72.8036 8.46332C72.4991 8.46332 72.2519 8.71048 72.2519 9.01503L72.2519 11.7735ZM69.8612 11.7735L70.9646 11.7735L70.9646 9.01503C70.9646 8.71048 70.7174 8.46332 70.4129 8.46332C70.1084 8.46332 69.8612 8.71049 69.8612 9.01503L69.8612 11.7735ZM70.4129 7.91162C71.1231 7.91162 71.7002 7.33417 71.7002 6.62431C71.7002 5.91445 71.1231 5.337 70.4129 5.337C69.7023 5.337 69.1256 5.91445 69.1256 6.62431C69.1256 7.33417 69.7023 7.91162 70.4129 7.91162ZM67.4705 11.7735L68.5739 11.7735L68.5739 9.01503C68.5739 8.71049 68.3267 8.46332 68.0222 8.46332C67.7176 8.46332 67.4705 8.71049 67.4705 9.01503L67.4705 11.7735Z" fill="#5CDEFF"/>
<path d="M69.8612 6.34498C69.8612 6.08789 70.0366 5.87235 70.275 5.8113L70.275 5.60938L70.5508 5.60938L70.5508 5.80689C70.7892 5.85396 70.9646 6.02058 70.9646 6.25303C70.9646 6.52888 70.7785 6.66865 70.482 6.76317C70.3441 6.80915 70.2294 6.85034 70.2294 6.95149C70.2294 7.05337 70.3114 7.12656 70.4129 7.12656C70.5144 7.12656 70.5964 7.04417 70.5964 6.94266L70.5964 6.89668L70.9646 6.89668C70.9646 7.15378 70.7892 7.36931 70.5508 7.43037L70.5508 7.63229L70.275 7.63229L70.275 7.43478C70.0366 7.3877 69.8612 7.22109 69.8612 6.98864C69.8612 6.71278 70.0433 6.57412 70.3437 6.47849C70.5034 6.42774 70.5964 6.39132 70.5964 6.29018C70.5964 6.1883 70.5144 6.1151 70.4129 6.1151C70.3114 6.1151 70.2294 6.19749 70.2294 6.29901L70.2294 6.34498L69.8612 6.34498Z" fill="#5CDEFF"/>
<path d="M102.854 71.4101C102.854 70.8808 103.282 70.4525 103.811 70.4525L119.743 70.4525C120.273 65.6402 124.316 61.8711 129.266 61.8711C134.576 61.8711 138.895 66.1899 138.895 71.4999C138.895 76.81 134.576 81.1287 129.266 81.1287C124.254 81.1287 120.172 77.2661 119.725 72.3678L103.811 72.3678C103.282 72.3678 102.854 71.9395 102.854 71.4101ZM129.266 79.2135C133.52 79.2135 136.98 75.7532 136.98 71.4999C136.98 67.2466 133.52 63.7864 129.266 63.7864C125.085 63.7864 121.689 67.1352 121.574 71.2888C121.58 71.3303 121.599 71.367 121.599 71.4101C121.599 71.4746 121.574 71.5308 121.562 71.5916C121.613 75.8017 125.044 79.2135 129.266 79.2135Z" fill="#5CDEFF"/>
<path d="M133.796 70.5145C133.897 70.5113 133.977 70.4263 133.974 70.3249L133.961 69.9021C133.958 69.8312 133.906 69.7449 133.845 69.7093L129.196 67.0481C129.135 67.0125 129.036 67.0156 128.977 67.055L124.506 70.0051C124.447 70.0445 124.4 70.1339 124.403 70.2049L124.416 70.6277C124.419 70.7291 124.504 70.8089 124.606 70.8056L125.157 70.7882L125.285 74.832L124.734 74.8494C124.632 74.8527 124.553 74.938 124.556 75.0391L124.579 75.7743C124.582 75.8754 124.667 75.9555 124.769 75.9523L133.959 75.6612C134.06 75.658 134.14 75.5726 134.137 75.4715L134.114 74.7363C134.111 74.6352 134.025 74.5551 133.924 74.5583L133.373 74.5758L133.245 70.532L133.796 70.5145ZM127.479 74.3945L126.376 74.4294L126.289 71.6723C126.279 71.3679 126.519 71.113 126.823 71.1034C127.127 71.0937 127.382 71.333 127.392 71.6373L127.479 74.3945ZM129.869 74.3188L128.766 74.3537L128.679 71.5966C128.669 71.2922 128.908 71.0373 129.213 71.0277C129.517 71.0181 129.772 71.2573 129.781 71.5617L129.869 74.3188ZM129.195 70.4763C128.485 70.4988 127.89 69.9399 127.868 69.2304C127.845 68.5209 128.404 67.9254 129.114 67.9029C129.824 67.8804 130.418 68.4393 130.441 69.1488C130.463 69.8583 129.905 70.4538 129.195 70.4763ZM132.258 74.2431L131.155 74.278L131.068 71.5209C131.058 71.2165 131.298 70.9616 131.602 70.952C131.906 70.9424 132.161 71.1816 132.171 71.486L132.258 74.2431Z" fill="#5CDEFF"/>
<path d="M129.697 68.9005C129.689 68.6435 129.507 68.4337 129.267 68.3802L129.26 68.1784L128.985 68.1871L128.991 68.3845C128.754 68.4391 128.584 68.6112 128.591 68.8435C128.6 69.1192 128.791 69.253 129.09 69.3381C129.229 69.3797 129.345 69.4173 129.348 69.5184C129.352 69.6202 129.272 69.6959 129.171 69.6992C129.069 69.7024 128.984 69.6226 128.981 69.5212L128.98 69.4752L128.612 69.4869C128.62 69.7438 128.802 69.9537 129.042 70.0072L129.049 70.209L129.324 70.2003L129.318 70.0028C129.555 69.9482 129.725 69.7762 129.718 69.5438C129.709 69.2681 129.522 69.1353 129.219 69.0492C129.058 69.0035 128.964 68.9701 128.961 68.869C128.957 68.7672 129.037 68.6914 129.138 68.6882C129.24 68.685 129.325 68.7647 129.328 68.8662L129.329 68.9122L129.697 68.9005Z" fill="#5CDEFF"/>
<path d="M36.0417 71.4101C36.0417 70.8808 35.6134 70.4525 35.0841 70.4525L19.1518 70.4525C18.6218 65.6402 14.5794 61.8711 9.62888 61.8711C4.31975 61.8711 6.12239e-05 66.1899 6.1456e-05 71.4999C6.16882e-05 76.81 4.31975 81.1287 9.62888 81.1287C14.6409 81.1287 18.7235 77.2661 19.17 72.3678L35.0841 72.3678C35.6134 72.3678 36.0417 71.9395 36.0417 71.4101ZM9.62888 79.2135C5.37559 79.2135 1.91535 75.7532 1.91535 71.4999C1.91535 67.2466 5.37559 63.7864 9.62888 63.7864C13.8098 63.7864 17.2062 67.1352 17.321 71.2888C17.3155 71.3303 17.2966 71.367 17.2966 71.4101C17.2966 71.4746 17.3211 71.5308 17.3332 71.5916C17.2827 75.8017 13.8508 79.2135 9.62888 79.2135Z" fill="#5CDEFF"/>
<path d="M5.07318 70.6609C4.97204 70.6609 4.88928 70.5786 4.88928 70.477L4.88928 70.0541C4.88928 69.9831 4.93857 69.8952 4.99889 69.8577L9.56111 67.0506C9.62143 67.0131 9.72 67.0131 9.78032 67.0506L14.3425 69.8577C14.4029 69.8952 14.4521 69.9831 14.4521 70.0541L14.4521 70.477C14.4521 70.5786 14.3698 70.6609 14.2682 70.6609L13.7165 70.6609L13.7165 74.7068L14.2682 74.7068C14.3698 74.7068 14.4521 74.7895 14.4521 74.8907L14.4521 75.6263C14.4521 75.7274 14.3698 75.8102 14.2682 75.8102L5.07318 75.8102C4.97204 75.8102 4.88928 75.7274 4.88928 75.6263L4.88928 74.8907C4.88928 74.7895 4.97204 74.7068 5.07318 74.7068L5.62489 74.7068L5.62489 70.6609L5.07318 70.6609ZM11.5097 74.339L12.6131 74.339L12.6131 71.5805C12.6131 71.2759 12.366 71.0288 12.0614 71.0288C11.7569 71.0288 11.5097 71.2759 11.5097 71.5805L11.5097 74.339ZM9.11901 74.339L10.2224 74.339L10.2224 71.5805C10.2224 71.2759 9.97526 71.0288 9.67072 71.0288C9.36617 71.0288 9.11901 71.2759 9.11901 71.5805L9.11901 74.339ZM9.67072 70.477C10.3809 70.477 10.958 69.8996 10.958 69.1897C10.958 68.4799 10.3809 67.9024 9.67071 67.9024C8.96012 67.9024 8.38341 68.4799 8.38341 69.1897C8.38341 69.8996 8.96012 70.477 9.67072 70.477ZM6.72829 74.339L7.8317 74.339L7.8317 71.5805C7.8317 71.2759 7.58454 71.0288 7.28 71.0288C6.97546 71.0288 6.72829 71.2759 6.72829 71.5805L6.72829 74.339Z" fill="#5CDEFF"/>
<path d="M9.119 68.9104C9.119 68.6533 9.29445 68.4378 9.53278 68.3767L9.53278 68.1748L9.80863 68.1748L9.80863 68.3723C10.047 68.4194 10.2224 68.586 10.2224 68.8185C10.2224 69.0943 10.0363 69.2341 9.73986 69.3286C9.60193 69.3746 9.48717 69.4158 9.48717 69.5169C9.48717 69.6188 9.56919 69.692 9.67071 69.692C9.77222 69.692 9.85424 69.6096 9.85424 69.5081L9.85424 69.4621L10.2224 69.4621C10.2224 69.7192 10.047 69.9347 9.80863 69.9958L9.80863 70.1977L9.53278 70.1977L9.53278 70.0002C9.29445 69.9531 9.119 69.7865 9.119 69.5541C9.119 69.2782 9.30107 69.1396 9.60156 69.0439C9.76119 68.9932 9.85424 68.9568 9.85424 68.8556C9.85424 68.7537 9.77222 68.6805 9.67071 68.6805C9.56919 68.6805 9.48717 68.7629 9.48717 68.8644L9.48717 68.9104L9.119 68.9104Z" fill="#5CDEFF"/>
<path d="M118.241 40.6196C118.514 41.9773 118.785 43.3269 119.056 44.6766L119.085 44.6803C119.339 43.3311 119.593 41.982 119.851 40.6133C119.959 40.6251 120.066 40.6291 120.17 40.6498C120.723 40.7596 121.193 41.0017 121.492 41.5049C121.599 41.6817 121.655 41.8845 121.655 42.0911C121.655 43.0291 121.656 43.9673 121.657 44.9057C121.659 44.9605 121.644 45.0146 121.615 45.0612C121.586 45.1078 121.544 45.1448 121.495 45.1676C121.296 45.2607 121.094 45.3607 120.883 45.406C120.054 45.5835 119.212 45.5717 118.37 45.5384C117.94 45.5212 117.511 45.4854 117.097 45.3618C116.935 45.3099 116.779 45.2411 116.631 45.1567C116.517 45.0941 116.468 44.9869 116.468 44.8459C116.474 43.9776 116.483 43.109 116.467 42.2406C116.457 41.6561 116.716 41.2404 117.192 40.9394C117.507 40.741 117.869 40.6305 118.241 40.6196V40.6196ZM119.87 42.7559H120.908V42.5844H119.87L119.87 42.7559Z" fill="#5CDEFF"/>
<path d="M122.941 43.2207C123.151 42.1055 123.359 40.9914 123.568 39.8783C124.229 39.8262 124.931 40.3402 125.04 40.945C125.049 41.0102 125.053 41.076 125.051 41.1418C125.051 41.8897 125.051 42.6375 125.054 43.3854C125.054 43.5084 124.994 43.5947 124.898 43.6352C124.703 43.7166 124.504 43.8038 124.298 43.8399C123.581 43.9655 122.856 43.9595 122.132 43.9125C122.106 43.9085 122.08 43.9028 122.055 43.8955C122.055 43.5466 122.056 43.199 122.055 42.8511C122.053 42.5375 122.069 42.2216 122.037 41.9106C121.979 41.334 121.668 40.9043 121.192 40.5875C121.138 40.551 121.081 40.5177 121.025 40.4831C121.022 40.4812 121.021 40.4765 121.014 40.4651C121.33 40.0769 121.752 39.9069 122.249 39.8652C122.474 40.992 122.697 42.1053 122.919 43.2183L122.941 43.2207Z" fill="#5CDEFF"/>
<path d="M115.465 43.2194L116.095 39.8672C116.569 39.8916 116.973 40.05 117.314 40.4055C117.267 40.4287 117.233 40.4448 117.198 40.4624C116.665 40.7267 116.243 41.097 116.066 41.6872C116.026 41.8287 116.006 41.9751 116.006 42.1221C115.999 42.6725 116.003 43.2231 116.003 43.7737V43.9179C115.972 43.9246 115.94 43.9295 115.908 43.9326C115.268 43.9533 114.629 43.9509 113.998 43.8214C113.819 43.7844 113.645 43.7093 113.477 43.6353C113.356 43.5815 113.305 43.4769 113.306 43.3329C113.312 42.6313 113.321 41.9293 113.306 41.2282C113.294 40.6855 113.551 40.3259 114.004 40.077C114.248 39.943 114.542 39.8695 114.772 39.8804C114.995 40.9906 115.219 42.1029 115.443 43.2173L115.465 43.2194Z" fill="#5CDEFF"/>
<path d="M119.056 40.2064C118.245 40.195 117.601 39.52 117.614 38.6945C117.627 37.8689 118.284 37.2141 119.087 37.2257C119.899 37.2374 120.526 37.9117 120.515 38.761C120.504 39.5595 119.84 40.2174 119.056 40.2064Z" fill="#5CDEFF"/>
<path d="M115.45 39.692C114.831 39.6872 114.349 39.1763 114.355 38.5332C114.361 37.9284 114.864 37.421 115.456 37.4238C116.071 37.4266 116.565 37.9447 116.559 38.5797C116.552 39.1929 116.051 39.6958 115.45 39.692Z" fill="#5CDEFF"/>
<path d="M122.92 39.6923C122.311 39.6905 121.821 39.1771 121.823 38.5446C121.826 37.9347 122.335 37.4178 122.927 37.4239C123.542 37.4302 124.029 37.9356 124.027 38.5686C124.027 39.1894 123.53 39.6935 122.92 39.6923Z" fill="#5CDEFF"/>
<path d="M119.465 40.8515L119.102 41.247C119.201 41.3535 119.295 41.4596 119.395 41.5601C119.445 41.611 119.464 41.6578 119.449 41.7329C119.327 42.3217 119.211 42.9113 119.075 43.5008C119.023 43.2479 118.971 42.9953 118.92 42.7422C118.852 42.4049 118.79 42.0676 118.718 41.7304C118.71 41.7016 118.709 41.671 118.718 41.6422C118.726 41.6133 118.742 41.5874 118.765 41.5675C118.864 41.4659 118.959 41.3582 119.063 41.2461L118.703 40.8529L119.084 40.5752L119.465 40.8515Z" fill="#5CDEFF"/>
<path d="M115.449 40.3887L115.149 40.063C115.245 39.9933 115.33 39.9286 115.421 39.8709C115.435 39.8643 115.45 39.8611 115.465 39.8613C115.481 39.8616 115.496 39.8655 115.51 39.8725C115.597 39.929 115.68 39.993 115.777 40.0635L115.479 40.3892C115.563 40.4806 115.647 40.5652 115.723 40.6567C115.749 40.6881 115.772 40.7404 115.765 40.7772C115.674 41.2519 115.577 41.7253 115.482 42.1991C115.475 42.2172 115.466 42.2346 115.456 42.251C115.356 41.7492 115.257 41.2608 115.164 40.7709C115.157 40.7351 115.181 40.6836 115.207 40.6527C115.282 40.5615 115.366 40.4778 115.449 40.3887Z" fill="#5CDEFF"/>
<path d="M122.932 42.234C122.881 41.9814 122.829 41.7287 122.778 41.4759C122.735 41.26 122.697 41.0428 122.648 40.8285C122.628 40.7422 122.644 40.6832 122.707 40.6234C122.783 40.5536 122.849 40.4722 122.925 40.3908L122.628 40.0651C122.724 39.9953 122.815 39.9279 122.909 39.8651C122.92 39.8601 122.933 39.8578 122.945 39.8585C122.958 39.8592 122.97 39.8628 122.981 39.869C123.07 39.929 123.156 39.9939 123.254 40.0653L122.957 40.391C123.043 40.484 123.129 40.5682 123.203 40.6611C123.231 40.6984 123.243 40.7452 123.238 40.7915C123.146 41.2733 123.049 41.7539 122.953 42.2349L122.932 42.234Z" fill="#5CDEFF"/>
<path d="M119.87 42.7515V42.5801H120.908V42.7515H119.87Z" fill="#5CDEFF"/>
<path d="M30.9017 34.7098C29.0837 32.8908 26.6652 31.8892 24.0934 31.8892C21.5216 31.8892 19.1032 32.8908 17.2852 34.7098C15.4653 36.5288 14.4646 38.9463 14.4646 41.519C14.4646 44.0908 15.4653 46.5083 17.2852 48.3272C19.1032 50.1462 21.5216 51.1478 24.0934 51.1478C26.2304 51.1478 28.2395 50.4216 29.9082 49.1443L35.9649 55.2028C36.339 55.5769 36.945 55.5769 37.319 55.2028C37.6931 54.8288 37.6931 54.2227 37.319 53.8487L31.3068 47.8346C32.8472 46.0791 33.7223 43.8752 33.7223 41.519C33.7223 38.9463 32.7216 36.5288 30.9017 34.7098ZM18.6394 46.9731C17.1823 45.516 16.3799 43.5792 16.3799 41.519C16.3799 39.4578 17.1823 37.521 18.6394 36.064C20.0964 34.6069 22.0323 33.8045 24.0934 33.8045C26.1546 33.8045 28.0905 34.6069 29.5475 36.064C31.0046 37.521 31.807 39.4578 31.807 41.519C31.807 43.5792 31.0046 45.516 29.5475 46.9731C28.0905 48.4301 26.1546 49.2325 24.0934 49.2325C22.0323 49.2325 20.0964 48.4301 18.6394 46.9731Z" fill="#5CDEFF"/>
<path d="M24.6262 40.6196C24.3534 41.9773 24.0824 43.3269 23.8121 44.6766L23.7828 44.6803C23.5287 43.3311 23.2747 41.982 23.017 40.6133C22.9091 40.6251 22.8018 40.6291 22.6981 40.6498C22.1449 40.7596 21.6746 41.0017 21.3759 41.5049C21.2691 41.6817 21.2127 41.8845 21.2131 42.0911C21.2131 43.0291 21.2121 43.9673 21.2103 44.9057C21.2087 44.9605 21.2233 45.0146 21.2522 45.0612C21.2812 45.1078 21.3232 45.1448 21.3731 45.1676C21.5713 45.2607 21.7734 45.3607 21.9851 45.406C22.8137 45.5835 23.6555 45.5717 24.4973 45.5384C24.9274 45.5212 25.3568 45.4854 25.7711 45.3618C25.9329 45.3099 26.0889 45.2411 26.2364 45.1567C26.3503 45.0941 26.3992 44.9869 26.3992 44.8459C26.3941 43.9776 26.385 43.109 26.4003 42.2406C26.4106 41.6561 26.1512 41.2404 25.6755 40.9394C25.3606 40.741 24.9983 40.6305 24.6262 40.6196V40.6196ZM22.9979 42.7559H21.9593V42.5844H22.9981L22.9979 42.7559Z" fill="#5CDEFF"/>
<path d="M19.9263 43.2207C19.7171 42.1055 19.5082 40.9914 19.2997 39.8783C18.6384 39.8262 17.9363 40.3402 17.8282 40.945C17.8185 41.0102 17.8147 41.076 17.8168 41.1418C17.8168 41.8897 17.8168 42.6375 17.8137 43.3854C17.8137 43.5084 17.8735 43.5947 17.9701 43.6352C18.1648 43.7166 18.3639 43.8038 18.5697 43.8399C19.2871 43.9655 20.0119 43.9595 20.7361 43.9125C20.7621 43.9085 20.7878 43.9028 20.8131 43.8955C20.8131 43.5466 20.8114 43.199 20.8131 42.8511C20.8151 42.5375 20.7991 42.2216 20.8303 41.9106C20.8882 41.334 21.1992 40.9043 21.6753 40.5875C21.73 40.551 21.7868 40.5177 21.8424 40.4831C21.8454 40.4812 21.8465 40.4765 21.8538 40.4651C21.5374 40.0769 21.1161 39.9069 20.6186 39.8652C20.3934 40.992 20.1708 42.1053 19.9482 43.2183L19.9263 43.2207Z" fill="#5CDEFF"/>
<path d="M27.4027 43.2194L26.7726 39.8672C26.2985 39.8916 25.8942 40.05 25.5537 40.4055C25.6002 40.4287 25.6351 40.4448 25.67 40.4624C26.2031 40.7267 26.6251 41.097 26.8016 41.6872C26.8416 41.8287 26.8619 41.9751 26.8619 42.1221C26.8686 42.6725 26.8642 43.2231 26.8642 43.7737V43.9179C26.8957 43.9246 26.9275 43.9295 26.9596 43.9326C27.5997 43.9533 28.239 43.9509 28.8696 43.8214C29.0487 43.7844 29.2224 43.7093 29.3906 43.6353C29.5113 43.5815 29.563 43.4769 29.5616 43.3329C29.5553 42.6313 29.5469 41.9293 29.5616 41.2282C29.5739 40.6855 29.3166 40.3259 28.8637 40.077C28.62 39.943 28.3255 39.8695 28.0961 39.8804C27.8728 40.9906 27.649 42.1029 27.4246 43.2173L27.4027 43.2194Z" fill="#5CDEFF"/>
<path d="M23.8118 40.2064C24.6231 40.195 25.267 39.52 25.254 38.6945C25.2409 37.8689 24.5836 37.2141 23.7808 37.2257C22.9692 37.2374 22.3421 37.9117 22.3533 38.761C22.364 39.5595 23.0276 40.2174 23.8118 40.2064Z" fill="#5CDEFF"/>
<path d="M27.4177 39.692C28.0362 39.6872 28.5189 39.1763 28.5126 38.5332C28.5068 37.9284 28.0037 37.421 27.4119 37.4238C26.7967 37.4266 26.3023 37.9447 26.3089 38.5797C26.3154 39.1929 26.8164 39.6958 27.4177 39.692Z" fill="#5CDEFF"/>
<path d="M19.9477 39.6923C20.5566 39.6905 21.047 39.1771 21.0444 38.5446C21.0416 37.9347 20.5327 37.4178 19.9411 37.4239C19.3256 37.4302 18.839 37.9356 18.8402 38.5686C18.8411 39.1894 19.338 39.6935 19.9477 39.6923Z" fill="#5CDEFF"/>
<path d="M23.403 40.8515L23.7656 41.247C23.6667 41.3535 23.5728 41.4596 23.473 41.5601C23.4225 41.611 23.4032 41.6578 23.4186 41.7329C23.5402 42.3217 23.6563 42.9113 23.7924 43.5008C23.8442 43.2479 23.897 42.9953 23.9477 42.7422C24.0152 42.4049 24.078 42.0676 24.1497 41.7304C24.1582 41.7016 24.1583 41.671 24.1501 41.6422C24.1418 41.6133 24.1255 41.5874 24.1031 41.5675C24.0033 41.4659 23.9089 41.3582 23.8047 41.2461L24.1643 40.8529L23.784 40.5752L23.403 40.8515Z" fill="#5CDEFF"/>
<path d="M27.4184 40.3887L27.7188 40.063C27.6229 39.9933 27.5375 39.9286 27.4471 39.8709C27.433 39.8643 27.4177 39.8611 27.4022 39.8613C27.3867 39.8616 27.3715 39.8655 27.3577 39.8725C27.2703 39.929 27.1877 39.993 27.0909 40.0635L27.3887 40.3892C27.3042 40.4806 27.2205 40.5652 27.1451 40.6567C27.1191 40.6881 27.0956 40.7404 27.1028 40.7772C27.1937 41.2519 27.2903 41.7253 27.3861 42.1991C27.393 42.2172 27.4016 42.2346 27.4119 42.251C27.512 41.7492 27.6108 41.2608 27.7041 40.7709C27.7108 40.7351 27.6866 40.6836 27.6608 40.6527C27.5852 40.5615 27.5015 40.4778 27.4184 40.3887Z" fill="#5CDEFF"/>
<path d="M19.9359 42.234C19.9871 41.9814 20.039 41.7287 20.0897 41.4759C20.133 41.26 20.1706 41.0428 20.22 40.8285C20.24 40.7422 20.2241 40.6832 20.1604 40.6234C20.0848 40.5536 20.0185 40.4722 19.9429 40.3908L20.2393 40.0651C20.1441 39.9953 20.0532 39.9279 19.9587 39.8651C19.9473 39.8601 19.9349 39.8578 19.9224 39.8585C19.91 39.8592 19.8979 39.8628 19.8871 39.869C19.7978 39.929 19.7119 39.9939 19.6138 40.0653L19.9108 40.391C19.8243 40.484 19.7391 40.5682 19.6649 40.6611C19.6369 40.6984 19.6244 40.7452 19.63 40.7915C19.7217 41.2733 19.8192 41.7539 19.915 42.2349L19.9359 42.234Z" fill="#5CDEFF"/>
<path d="M22.998 42.7515V42.5801H21.9594V42.7515H22.998Z" fill="#5CDEFF"/>
</svg>
