<svg width="76" height="43" viewBox="0 0 76 43" fill="none" xmlns="http://www.w3.org/2000/svg">
<path d="M44.3002 6.41238C45.6845 6.41238 47.0013 6.41238 48.3519 6.41238C50.5127 6.41238 52.6736 6.34978 54.8345 6.44368C57.9746 6.60018 60.6081 7.88346 62.7015 10.0431C62.7015 10.0431 62.7015 10.0744 62.7353 10.137C57.7044 9.57364 53.0788 10.5752 48.9596 13.3609C44.8742 16.1153 42.3757 19.8712 41.3965 24.4723C39.0331 24.4723 36.7034 24.4723 34.3736 24.4723C32.8205 15.8336 23.738 8.75985 12.8999 10.137C13.2713 9.79274 13.5751 9.47975 13.879 9.22935C16.1074 7.38267 18.6735 6.41238 21.6785 6.38108C24.8185 6.38108 27.9585 6.38108 31.0986 6.38108C31.1998 6.38108 31.3011 6.38108 31.4362 6.38108C31.5375 4.4405 32.3478 2.84421 34.0022 1.65483C35.2853 0.747136 36.7709 0.37154 38.3578 0.465439C41.1939 0.715836 44.1314 2.78161 44.3002 6.41238Z" fill="#5CDEFF"/>
<path d="M15.6684 42.0939C7.0586 42.0626 0.137017 35.74 0.00196213 27.7899C-0.133093 19.7459 6.72096 13.2355 15.2632 13.0164C24.0418 12.7973 31.3685 19.2451 31.3685 27.5708C31.3685 35.74 24.2781 42.0939 15.6684 42.0939ZM15.6346 38.0562C21.8809 38.1188 27.3844 33.236 26.9792 26.9135C26.6416 21.5299 21.8134 17.0228 15.6008 17.0854C9.15195 17.148 4.18867 21.9055 4.35749 27.9464C4.56007 33.7681 9.79346 38.0562 15.6346 38.0562Z" fill="#5CDEFF"/>
<path d="M44.4017 27.5709C44.4017 19.5269 51.4921 12.8601 60.4057 13.0479C68.9817 13.2044 75.6332 19.6521 75.7682 27.3518C75.9033 35.5836 68.8467 41.9061 60.5745 42.1252C51.357 42.3443 44.3679 35.4271 44.4017 27.5709ZM60.1018 38.0562C66.3481 38.0562 71.4127 33.33 71.4127 27.5396C71.4127 21.7492 66.3144 17.023 60.0343 17.0543C53.8218 17.0543 48.791 21.7805 48.7572 27.5709C48.7572 33.3613 53.8555 38.0562 60.1018 38.0562Z" fill="#5CDEFF"/>
<path d="M60.0338 34.0186C63.8829 34.0186 67.0567 31.139 67.0567 27.6335C67.0567 23.9715 63.9504 21.0293 60.0676 21.0919C56.1848 21.1545 53.146 24.0028 53.1123 27.4144C53.0785 31.1077 56.151 34.0186 60.0338 34.0186Z" fill="#5CDEFF"/>
<path d="M15.702 21.0917C19.5511 21.0917 22.6573 24.0025 22.6573 27.5394C22.6573 31.1389 19.4498 34.081 15.5332 34.0184C11.8192 33.9558 8.67914 31.045 8.67914 27.5707C8.74667 24.0025 11.8529 21.0917 15.702 21.0917Z" fill="#5CDEFF"/>
<path d="M60.0338 34.0186C56.151 34.0186 53.0785 31.1077 53.1123 27.4144C53.146 24.0028 56.151 21.1232 60.0676 21.0919C63.9504 21.0293 67.0567 23.9715 67.0567 27.6335C67.0567 31.139 63.9167 34.0186 60.0338 34.0186Z" fill="#5CDEFF"/>
</svg>
