<svg xmlns="http://www.w3.org/2000/svg" xmlns:xlink="http://www.w3.org/1999/xlink" version="1.1" x="0px" y="0px" viewBox="0 0 60 75" enable-background="new 0 0 60 60" xml:space="preserve"><rect x="-410" y="-11" display="none" fill="#000000" width="802" height="805"/><path d="M25.5185547,26.5693359c0.4667969,1.203125,1.2382812,2.3061523,2.1591797,3.0878906  c-0.0126953,0.4174805-0.03125,0.8989258-0.0654297,1.0400391c-0.0917969,0.3740234-0.4013672,0.6484375-0.8300781,0.734375  c-1.8349609,0.3706055-4.4560547,2.237793-5.9667969,4.2509766c-0.5,0.6669922-0.6103516,1.6103516-0.2685547,2.2944336  c0.2949219,0.5888672,0.8632812,0.9130859,1.6005859,0.9130859h15.7539062c0.7382812,0,1.3066406-0.3242188,1.6005859-0.9135742  c0.3417969-0.684082,0.2304688-1.6279297-0.2695312-2.293457c-1.5097656-2.0136719-4.1298828-3.8808594-5.9667969-4.2514648  c-0.4277344-0.0859375-0.7373047-0.3603516-0.8291016-0.7358398c-0.0332031-0.1357422-0.0517578-0.5927734-0.0654297-1.0385742  c0.9130859-0.7749023,1.6796875-1.8671875,2.1484375-3.0600586c0.4355469-0.184082,0.7851562-0.722168,0.9189453-1.4580078  c0.1210938-0.7373047-0.0410156-1.3706055-0.3955078-1.6879883c0.0019531-1.5541992-0.0244141-3.0117188-0.6132812-4.1147461  C33.7158203,17.9990234,32.3242188,17.3745117,30,17.3706055c-2.2753906,0.0039062-3.6669922,0.628418-4.3808594,1.9658203  c-0.5849609,1.0952148-0.6152344,2.5400391-0.6132812,4.1147461c-0.3544922,0.3178711-0.5166016,0.9526367-0.3945312,1.6962891  C24.7382812,25.8457031,25.0644531,26.3676758,25.5185547,26.5693359z M25.5976562,24.230957  c0.2373047-0.0439453,0.4091797-0.2905273,0.4091797-0.5317383C26.0029297,22.1152344,26,20.7475586,26.5009766,19.8071289  c0.328125-0.6147461,1.0488281-1.4321289,3.5458984-1.4365234c2.4521484,0.0043945,3.1728516,0.8217773,3.5009766,1.4365234  c0.5009766,0.9404297,0.4980469,2.3081055,0.4941406,3.9311523c-0.0009766,0.2412109,0.1015625,0.4160156,0.3388672,0.4604492  c0.0449219,0.0483398,0.1464844,0.3222656,0.0722656,0.7700195c-0.0820312,0.4506836-0.2666016,0.6767578-0.2460938,0.6987305  c-0.2402344-0.0307617-0.453125,0.1103516-0.53125,0.3310547c-0.4179688,1.1894531-1.2099609,2.3232422-2.1191406,3.0332031  c-0.125,0.0976562-0.1953125,0.3120117-0.1904297,0.4711914c0.0214844,0.7265625,0.0380859,1.1855469,0.0996094,1.4316406  c0.1826172,0.75,0.796875,1.315918,1.6035156,1.4775391c1.5986328,0.3227539,4.0048828,2.059082,5.3632812,3.8710938  c0.2685547,0.3574219,0.3447266,0.9052734,0.1748047,1.246582c-0.1210938,0.2426758-0.3525391,0.3603516-0.7060547,0.3603516  H22.1474609c-0.3535156,0-0.5849609-0.1176758-0.7060547-0.3598633c-0.1708984-0.3417969-0.09375-0.8896484,0.1748047-1.2475586  c1.3583984-1.8115234,3.7646484-3.5478516,5.3623047-3.8706055c0.8076172-0.1616211,1.421875-0.7275391,1.6044922-1.4760742  c0.0615234-0.2475586,0.078125-0.706543,0.1015625-1.4956055c0.0048828-0.1591797-0.0664062-0.3110352-0.1923828-0.4086914  c-0.9101562-0.7109375-1.7021484-1.8447266-2.1191406-3.0332031c-0.0703125-0.2011719-0.1953125-0.3251953-0.3916016-0.3251953  c-0.0195312,0-0.0400391,0.0009766-0.0615234,0.003418c-0.0576172-0.03125-0.2421875-0.2573242-0.3232422-0.699707  C25.5214844,24.5209961,25.6230469,24.2470703,25.5976562,24.230957z"/><path d="M37.5488281,22.9746094c0.1279297,0,0.2558594-0.0488281,0.3535156-0.1464844l6.2422485-6.2426758  c0.8952026,0.7341309,1.9938354,1.1538086,3.1669312,1.1538086c1.3427734,0,2.6054688-0.5229492,3.5546875-1.4726562  c0.9501953-0.949707,1.4726562-2.2119141,1.4726562-3.5546875c0-1.3432617-0.5224609-2.6054688-1.4726562-3.5551758  c-0.9492188-0.949707-2.2119141-1.4726562-3.5546875-1.4726562s-2.6054688,0.5229492-3.5546875,1.4726562  c-0.9501953,0.949707-1.4726562,2.2119141-1.4726562,3.5551758c0,1.1729126,0.4191895,2.2710571,1.1533813,3.1664429  l-6.2422485,6.2427368C37,22.3164062,37,22.6328125,37.1953125,22.828125  C37.2929688,22.9257812,37.4208984,22.9746094,37.5488281,22.9746094z M44.4638672,9.8637695  c0.7607422-0.7607422,1.7714844-1.1796875,2.8476562-1.1796875s2.0869141,0.4189453,2.8476562,1.1796875  s1.1796875,1.7719727,1.1796875,2.8481445c0,1.0756836-0.4189453,2.0869141-1.1796875,2.8476562  s-1.7714844,1.1796875-2.8476562,1.1796875s-2.0869141-0.4189453-2.8476562-1.1796875s-1.1796875-1.7719727-1.1796875-2.8476562  C43.2841797,11.6357422,43.703125,10.6245117,44.4638672,9.8637695z"/><path d="M43.7568359,50.8432617c0.9492188,0.949707,2.2119141,1.4726562,3.5546875,1.4726562  s2.6054688-0.5229492,3.5546875-1.4726562c0.9501953-0.949707,1.4726562-2.2119141,1.4726562-3.5551758  c0-1.3427734-0.5224609-2.6049805-1.4726562-3.5546875c-0.9492188-0.949707-2.2119141-1.4726562-3.5546875-1.4726562  c-1.1157227,0-2.1647339,0.3791504-3.0359497,1.0460815l-3.1622925-3.163269c-0.1953125-0.1953125-0.5117188-0.1953125-0.7070312,0  s-0.1953125,0.5117188,0,0.7070312l3.1390991,3.1400146c-0.8042603,0.9165649-1.2611694,2.0672607-1.2611694,3.2974854  C42.2841797,48.6313477,42.8066406,49.8935547,43.7568359,50.8432617z M50.1591797,44.4404297  c0.7607422,0.7607422,1.1796875,1.7719727,1.1796875,2.8476562c0,1.0761719-0.4189453,2.0874023-1.1796875,2.8481445  s-1.7714844,1.1796875-2.8476562,1.1796875s-2.0869141-0.4189453-2.8476562-1.1796875s-1.1796875-1.7719727-1.1796875-2.8481445  c0-1.0756836,0.4189453-2.0869141,1.1796875-2.8476562s1.7714844-1.1796875,2.8476562-1.1796875  S49.3984375,43.6796875,50.1591797,44.4404297z"/><path d="M29.5205078,10.5272827V14.90625c0,0.2763672,0.2236328,0.5,0.5,0.5s0.5-0.2236328,0.5-0.5v-4.3783569  c2.536438-0.2538452,4.5302734-2.3753052,4.5302734-4.9771118c0-2.7719727-2.2548828-5.0273438-5.0273438-5.0273438  s-5.0273438,2.2553711-5.0273438,5.0273438C24.9960938,8.1505737,26.9868774,10.270813,29.5205078,10.5272827z   M30.0234375,1.5234375c2.2207031,0,4.0273438,1.8066406,4.0273438,4.0273438S32.2441406,9.578125,30.0234375,9.578125  s-4.0273438-1.8066406-4.0273438-4.0273438S27.8027344,1.5234375,30.0234375,1.5234375z"/><path d="M54.4726562,24.9726562c-2.6011963,0-4.7216797,1.9927368-4.9768066,4.5273438H37.7158203  c-0.2763672,0-0.5,0.2236328-0.5,0.5s0.2236328,0.5,0.5,0.5h11.7800293c0.255127,2.5346069,2.3756104,4.5273438,4.9768066,4.5273438  C57.2451172,35.0273438,59.5,32.7719727,59.5,30S57.2451172,24.9726562,54.4726562,24.9726562z M54.4726562,34.0273438  c-2.1687622,0-3.9302368-1.7266235-4.0120239-3.8757324C50.4763184,30.1030884,50.4912109,30.053833,50.4912109,30  s-0.0148926-0.1030884-0.0305786-0.1516113c0.0817871-2.1491089,1.8432617-3.8757324,4.0120239-3.8757324  C56.6933594,25.9726562,58.5,27.7792969,58.5,30S56.6933594,34.0273438,54.4726562,34.0273438z"/><path d="M19.59375,40.1435547c-0.1953125-0.1953125-0.5117188-0.1953125-0.7070312,0l-3.1622925,3.163269  c-0.8712158-0.6669312-1.9202271-1.0460815-3.0359497-1.0460815c-1.3427734,0-2.6054688,0.5229492-3.5546875,1.4726562  c-0.9501953,0.949707-1.4726562,2.2119141-1.4726562,3.5546875c0,1.3432617,0.5224609,2.6054688,1.4726562,3.5551758  c0.9492188,0.949707,2.2119141,1.4726562,3.5546875,1.4726562s2.6054688-0.5229492,3.5546875-1.4726562  c0.9501953-0.949707,1.4726562-2.2119141,1.4726562-3.5551758c0-1.2302246-0.4569092-2.3809204-1.2611694-3.2974854  l3.1390991-3.1400146C19.7890625,40.6552734,19.7890625,40.3388672,19.59375,40.1435547z M15.5361328,50.1362305  c-0.7607422,0.7607422-1.7714844,1.1796875-2.8476562,1.1796875s-2.0869141-0.4189453-2.8476562-1.1796875  s-1.1796875-1.7719727-1.1796875-2.8481445c0-1.0756836,0.4189453-2.0869141,1.1796875-2.8476562  s1.7714844-1.1796875,2.8476562-1.1796875s2.0869141,0.4189453,2.8476562,1.1796875s1.1796875,1.7719727,1.1796875,2.8476562  C16.7158203,48.3642578,16.296875,49.3754883,15.5361328,50.1362305z"/><path d="M12.6884766,17.7392578c1.1730957,0,2.2717285-0.4196777,3.1669312-1.1538086l6.2422485,6.2426758  c0.0976562,0.0976562,0.2255859,0.1464844,0.3535156,0.1464844s0.2558594-0.0488281,0.3535156-0.1464844  C23,22.6328125,23,22.3164062,22.8046875,22.1210938l-6.2422485-6.2427368  c0.7341919-0.8953857,1.1533813-1.9935303,1.1533813-3.1664429c0-1.3432617-0.5224609-2.6054688-1.4726562-3.5551758  C15.2939453,8.2070312,14.03125,7.684082,12.6884766,7.684082s-2.6054688,0.5229492-3.5546875,1.4726562  c-0.9501953,0.949707-1.4726562,2.2119141-1.4726562,3.5551758c0,1.3427734,0.5224609,2.6049805,1.4726562,3.5546875  C10.0830078,17.2163086,11.3457031,17.7392578,12.6884766,17.7392578z M9.8408203,9.8637695  c0.7607422-0.7607422,1.7714844-1.1796875,2.8476562-1.1796875s2.0869141,0.4189453,2.8476562,1.1796875  s1.1796875,1.7719727,1.1796875,2.8481445c0,1.0756836-0.4189453,2.0869141-1.1796875,2.8476562  s-1.7714844,1.1796875-2.8476562,1.1796875s-2.0869141-0.4189453-2.8476562-1.1796875s-1.1796875-1.7719727-1.1796875-2.8476562  C8.6611328,11.6357422,9.0800781,10.6245117,9.8408203,9.8637695z"/><path d="M29.9765625,40.6586914c-0.2763672,0-0.5,0.2236328-0.5,0.5v8.3184814  c-2.5125732,0.2767334-4.4804688,2.3873291-4.4804688,4.9720459c0,2.7719727,2.2548828,5.0273438,5.0273438,5.0273438  s5.0273438-2.2553711,5.0273438-5.0273438c0-2.6168213-2.0167236-4.7484131-4.5742188-4.9815674v-8.30896  C30.4765625,40.8823242,30.2529297,40.6586914,29.9765625,40.6586914z M34.0507812,54.4492188  c0,2.2207031-1.8066406,4.0273438-4.0273438,4.0273438s-4.0273438-1.8066406-4.0273438-4.0273438  c0-2.1829224,1.7484741-3.9562378,3.9171143-4.0161743c0.0216675,0.0028687,0.0408325,0.0127563,0.0633545,0.0127563  c0.0336304,0,0.0629883-0.0128174,0.0947266-0.019104C32.2694702,50.453064,34.0507812,52.244873,34.0507812,54.4492188z"/><path d="M5.5273438,35.0273438c2.6011963,0,4.7216797-1.9927368,4.9768066-4.5273438h11.7800293c0.2763672,0,0.5-0.2236328,0.5-0.5  s-0.2236328-0.5-0.5-0.5H10.5041504c-0.255127-2.5346069-2.3756104-4.5273438-4.9768066-4.5273438  C2.7548828,24.9726562,0.5,27.2280273,0.5,30S2.7548828,35.0273438,5.5273438,35.0273438z M5.5273438,25.9726562  c2.1687622,0,3.9302368,1.7266235,4.0120239,3.8757324C9.5236816,29.8969116,9.5087891,29.946167,9.5087891,30  s0.0148926,0.1030884,0.0305786,0.1516113c-0.0817871,2.1491089-1.8432617,3.8757324-4.0120239,3.8757324  C3.3066406,34.0273438,1.5,32.2207031,1.5,30S3.3066406,25.9726562,5.5273438,25.9726562z"/><text x="0" y="75" fill="#000000" font-size="5px" font-weight="bold" font-family="'Helvetica Neue', Helvetica, Arial-Unicode, Arial, Sans-serif">Created by Josh Sorosky</text><text x="0" y="80" fill="#000000" font-size="5px" font-weight="bold" font-family="'Helvetica Neue', Helvetica, Arial-Unicode, Arial, Sans-serif">from the Noun Project</text></svg>