<svg xmlns="http://www.w3.org/2000/svg" xmlns:xlink="http://www.w3.org/1999/xlink" version="1.1" x="0px" y="0px" viewBox="0 0 32 40" enable-background="new 0 0 32 32" xml:space="preserve"><path d="M28.5,13c0.275,0,0.5-0.224,0.5-0.5v-1.15c0-0.193-0.134-0.432-0.298-0.534L16.298,3.184c-0.164-0.102-0.432-0.102-0.596,0  L3.298,10.816C3.134,10.918,3,11.157,3,11.35v1.15C3,12.776,3.224,13,3.5,13H5v11H3.5C3.224,24,3,24.225,3,24.5v2  C3,26.775,3.224,27,3.5,27h25c0.275,0,0.5-0.225,0.5-0.5v-2c0-0.275-0.225-0.5-0.5-0.5H27V13H28.5z M11,23H8v-7.5  C8,14.672,8.672,14,9.5,14s1.5,0.672,1.5,1.5V23z M17.5,23h-3v-7.5c0-0.828,0.672-1.5,1.5-1.5s1.5,0.672,1.5,1.5V23z M16,12.5  c-1.931,0-3.5-1.57-3.5-3.5s1.569-3.5,3.5-3.5c1.932,0,3.5,1.57,3.5,3.5S17.932,12.5,16,12.5z M24,23h-3v-7.5  c0-0.828,0.672-1.5,1.5-1.5s1.5,0.672,1.5,1.5V23z"/><path d="M17.5,8.25c0-0.699-0.477-1.285-1.125-1.451V6.25h-0.75v0.537C14.977,6.915,14.5,7.368,14.5,8  c0,0.75,0.506,1.13,1.312,1.387c0.375,0.125,0.687,0.237,0.687,0.512c0,0.277-0.223,0.476-0.499,0.476s-0.499-0.224-0.499-0.5V9.75  H14.5c0,0.699,0.477,1.285,1.125,1.451v0.549h0.75v-0.537C17.023,11.085,17.5,10.632,17.5,10c0-0.75-0.495-1.127-1.312-1.387  c-0.434-0.138-0.687-0.237-0.687-0.512c0-0.277,0.223-0.476,0.499-0.476s0.499,0.224,0.499,0.5V8.25H17.5z"/><text x="0" y="47" fill="#000000" font-size="5px" font-weight="bold" font-family="'Helvetica Neue', Helvetica, Arial-Unicode, Arial, Sans-serif">Created by trang5000</text><text x="0" y="52" fill="#000000" font-size="5px" font-weight="bold" font-family="'Helvetica Neue', Helvetica, Arial-Unicode, Arial, Sans-serif">from the Noun Project</text></svg>