<svg xmlns="http://www.w3.org/2000/svg" xmlns:xlink="http://www.w3.org/1999/xlink" version="1.1" x="0px" y="0px" viewBox="0 0 100 125" enable-background="new 0 0 100 100" xml:space="preserve"><path fill="#000000" d="M50,36.1c6.1,0,11.5-2.8,15-7.2c-1.8-4.4-5.4-7.8-10-9.3c3.2-1.8,5.4-5.2,5.4-9.2C60.4,4.7,55.8,0,50,0  c-5.8,0-10.4,4.7-10.4,10.4c0,3.9,2.2,7.4,5.4,9.2c-4.5,1.5-8.2,4.9-10,9.3C38.5,33.3,43.9,36.1,50,36.1z"/><path fill="#000000" d="M85,99.6c6.1,0,11.5-2.8,15-7.2c-1.8-4.4-5.4-7.8-10-9.3c3.2-1.8,5.4-5.2,5.4-9.2c0-5.8-4.7-10.4-10.4-10.4  c-5.8,0-10.4,4.7-10.4,10.4c0,3.9,2.2,7.4,5.4,9.2c-4.5,1.5-8.2,4.9-10,9.3C73.5,96.8,78.9,99.6,85,99.6z"/><path fill="#000000" d="M15,99.6c6.1,0,11.5-2.8,15-7.2c-1.8-4.4-5.4-7.8-10-9.3c3.2-1.8,5.4-5.2,5.4-9.2c0-5.8-4.7-10.4-10.4-10.4  C9.2,63.5,4.6,68.2,4.6,74c0,3.9,2.2,7.4,5.4,9.2C5.4,84.6,1.8,88,0,92.4C3.5,96.8,8.9,99.6,15,99.6z"/><rect x="58.3" y="47.1" transform="matrix(0.492 0.8706 -0.8706 0.492 78.6498 -35.5481)" fill="#000000" width="23" height="5"/><rect x="27.7" y="38.1" transform="matrix(0.8704 0.4923 -0.4923 0.8704 28.3441 -8.4472)" fill="#000000" width="5" height="23"/><rect x="30" y="69.6" fill="#000000" width="40" height="5"/><text x="0" y="115" fill="#000000" font-size="5px" font-weight="bold" font-family="'Helvetica Neue', Helvetica, Arial-Unicode, Arial, Sans-serif">Created by Stephen JB Thomas</text><text x="0" y="120" fill="#000000" font-size="5px" font-weight="bold" font-family="'Helvetica Neue', Helvetica, Arial-Unicode, Arial, Sans-serif">from the Noun Project</text></svg>