<svg xmlns="http://www.w3.org/2000/svg" data-name="Layer 1" viewBox="0 0 512 640" x="0px" y="0px"><title>Yen Investor</title><path d="M452.215,195.927c.156.012.31.019.467.019a6,6,0,0,0,5.974-5.54l3.955-51.4a6,6,0,0,0-5.554-6.445l-55.35-3.954a6,6,0,0,0-.855,11.97l39.8,2.842L367.7,200.117l-55.283-43.548a6,6,0,0,0-7.867.383l-56.666,54.36a6,6,0,1,0,8.306,8.66l52.9-50.747,54.871,43.223a6,6,0,0,0,7.394.025L449.6,151.665l-2.911,37.82A6,6,0,0,0,452.215,195.927Z"/><path d="M480.244,453H464V246.954A6,6,0,0,0,457.951,241H394.732A5.739,5.739,0,0,0,389,246.954V453H349V285.721c0-3.314-2.66-6.721-5.975-6.721H279.807c-3.313,0-5.807,3.407-5.807,6.721V453H234V357.914A5.844,5.844,0,0,0,228.1,352H164.879A5.825,5.825,0,0,0,159,357.914V453H34.336a6,6,0,0,0,0,12H480.244a6,6,0,0,0,0-12Z"/><path d="M86.871,84.739c.059,0,.115.008.176.008s.115-.008.176-.008Z"/><path d="M66,106.206v10.988c0,11.837,9.162,21.467,21,21.467s21-9.63,21-21.467V106.206a21,21,0,1,0-42,0Z"/><path d="M28.62,278.664a8.648,8.648,0,0,0,6.4,2.336h.12A8.631,8.631,0,0,0,44,272.111V216.02a6,6,0,1,1,12,0v34.025c0,.268.166.283.175.562L56.52,259h63.013l.467-5.047V216.02a6,6,0,1,1,12,0v33.987c0,.393.1.8.086,1.213L132,254.112v18.415a9,9,0,1,0,18,0V188.105c0-.2.025-.515.046-.716a22.77,22.77,0,0,0-20.133-24.929c-.753-.077-1.52-.46-2.272-.46h-12.09L92.057,184.391c-.118.11-.25.471-.373.57-.161.128-.315.291-.485.4a5.9,5.9,0,0,1-.515.3c-.176.09-.346.193-.528.264a5.824,5.824,0,0,1-.562.179c-.182.052-.362.111-.549.146s-.387.048-.582.064-.373.038-.563.036a5.645,5.645,0,0,1-.58-.048c-.189-.02-.375-.036-.562-.073s-.377-.1-.567-.163-.361-.112-.539-.186a5.949,5.949,0,0,1-.539-.288c-.168-.09-.336-.2-.5-.309s-.328-.309-.488-.444c-.119-.1-.248-.41-.361-.52L61.182,162H48.268a22.7,22.7,0,0,0-15.922,6.945,23.04,23.04,0,0,0-6.59,16.22c0,.754.075,1.55.151,2.305.02.2.093.433.093.635v84.433A8.264,8.264,0,0,0,28.62,278.664Z"/><path d="M104.438,426.487a10.619,10.619,0,0,0,10.426-10.305L119.178,271h-62.3l4.3,145.221a10.547,10.547,0,0,0,10.413,10.2A10.375,10.375,0,0,0,82,416.061V291.971a6,6,0,0,1,12,0V416.062A10.448,10.448,0,0,0,104.438,426.487Z"/><path d="M281.18,108.219a61.466,61.466,0,1,0-61.467,61.466A61.536,61.536,0,0,0,281.18,108.219ZM248.271,78.7l-23.492,33.061,0,.239h12.209a6,6,0,0,1,0,12H224.7l-.049,8h12.332a6,6,0,0,1,0,12h-12.4l-.02,3.142a5.912,5.912,0,0,1-6,5.858h-.037a5.834,5.834,0,0,1-5.963-5.855l.02-3.145h-11.6a6,6,0,0,1,0-12h11.668l.049-8H200.986a6,6,0,0,1,0-12h11.789l0-.4L189.4,78.639a5.927,5.927,0,0,1,1.43-8.3,6,6,0,0,1,8.363,1.43l19.643,27.742,19.639-27.742a6,6,0,1,1,9.794,6.933Z"/><text x="0" y="527" fill="#000000" font-size="5px" font-weight="bold" font-family="'Helvetica Neue', Helvetica, Arial-Unicode, Arial, Sans-serif">Created by Shastry</text><text x="0" y="532" fill="#000000" font-size="5px" font-weight="bold" font-family="'Helvetica Neue', Helvetica, Arial-Unicode, Arial, Sans-serif">from the Noun Project</text></svg>