<svg xmlns="http://www.w3.org/2000/svg" xmlns:xlink="http://www.w3.org/1999/xlink" version="1.1" x="0px" y="0px" viewBox="0 0 64 80" enable-background="new 0 0 64 64" xml:space="preserve"><g><path d="M36.95,29.98c2.43,0.823,5.079,1.184,7.302,2.702c1.326,0.906,1.662,2.331,1.786,3.817   c0.051,0.62,0.666,11.29,0.648,11.913c-0.028,0.988-0.713,1.678-1.706,1.739c-0.3,0.019-0.601,0.014-0.902,0.014   c-7.702,0.001-16.676,0.001-24.378,0c-1.803,0-2.408-0.599-2.386-2.417c0.009-0.736,0.658-11.528,0.8-12.246   c0.309-1.561,1.132-2.823,2.651-3.409c2.057-0.792,4.163-1.457,6.367-2.218l3.447,9.225l0.68-6.167l-0.891-0.922   c-0.018-0.024-0.036-0.048-0.042-0.078c-0.108-0.65,0.398-1.247,1.06-1.247h1.259c0.602,0,1.072,0.488,1.072,1.066   c0,0.06,0,0.12-0.012,0.181c-0.006,0.03-0.018,0.054-0.036,0.078l-0.795,0.891v0.181l0.601,6.037L36.95,29.98z"/><g><g><path d="M57.075,19.501v-0.157c0-0.028,0-0.051-0.005-0.078c0.028,0.078,0.06,0.147,0.083,0.221     c0.041,0.106,0.074,0.217,0.111,0.322c0-0.018-0.005-0.037-0.005-0.055c-0.051-0.244-0.111-0.488-0.198-0.723     c-0.014-0.244-0.046-0.479-0.101-0.714c0.005,0.014,0.014,0.028,0.023,0.041c-0.014-0.041-0.023-0.083-0.041-0.124     c-0.009-0.028-0.018-0.051-0.028-0.074c-0.06-0.152-0.134-0.295-0.221-0.428c-0.078-0.115-0.166-0.226-0.267-0.322     c-0.051-0.041-0.092-0.092-0.129-0.143c-0.143-0.217-0.304-0.41-0.498-0.567c-0.12-0.097-0.253-0.18-0.405-0.249     c-0.17-0.074-0.346-0.147-0.516-0.221c-0.041-0.018-0.088-0.037-0.129-0.055c0.488,0.037,0.949,0.175,1.396,0.364     c0.088,0.037,0.17,0.074,0.258,0.115c-0.018-0.018-0.037-0.032-0.055-0.046c-0.092-0.06-0.184-0.115-0.276-0.166     c-0.465-0.253-0.967-0.392-1.497-0.451c-0.235-0.028-0.479-0.028-0.705-0.12c-0.078-0.032-0.166-0.046-0.249-0.069     c-0.023-0.005-0.041-0.009-0.065-0.018c-0.097-0.023-0.198-0.046-0.295-0.074v-0.018h1.101c-0.009-0.023-0.018-0.028-0.028-0.028     c-0.475-0.069-0.944-0.124-1.424-0.078h-0.018c-0.166,0.014-0.332,0.023-0.498,0c-0.069-0.009-0.147-0.014-0.217-0.018     c-0.005-0.009-0.005-0.014-0.005-0.018v-0.005c0.359-0.065,0.719-0.134,1.101-0.203c-0.382,0.009-0.742,0.032-1.096,0.097     c-0.198,0.032-0.392,0.097-0.59,0.124c-0.286,0.037-0.576,0.051-0.862,0.074c0.567-0.267,1.175-0.387,1.797-0.456     c-0.115,0.005-0.23,0-0.35,0.005c-0.428,0.023-0.857,0.074-1.272,0.189c-0.346,0.092-0.673,0.226-0.954,0.451     c-0.055,0.046-0.12,0.074-0.18,0.111c-0.005-0.009-0.009-0.018-0.018-0.028c0.129-0.092,0.258-0.193,0.392-0.281     c0.138-0.083,0.281-0.161,0.428-0.23c0.143-0.065,0.295-0.12,0.438-0.18c-0.29,0.074-0.567,0.175-0.834,0.309     c-0.438,0.212-0.792,0.553-1.161,0.862c-0.074,0.065-0.152,0.129-0.23,0.189l-0.005,0.005c-0.028,0.046-0.06,0.097-0.088,0.143     c-0.037,0.074-0.069,0.157-0.111,0.226c-0.023,0.032-0.065,0.055-0.101,0.069c-0.074,0.032-0.157,0.051-0.23,0.083     c-0.018,0.009-0.037,0.018-0.055,0.028c-0.088,0.046-0.17,0.097-0.24,0.152c-0.221,0.18-0.364,0.424-0.433,0.723     c0.092-0.189,0.217-0.359,0.392-0.511c-0.051,0.161-0.088,0.309-0.134,0.452c-0.018,0.055-0.046,0.115-0.078,0.166     c-0.092,0.143-0.166,0.295-0.221,0.475c0.074-0.129,0.138-0.24,0.207-0.35c0.005,0.005,0.009,0.009,0.014,0.009     c-0.005,0.032-0.014,0.06-0.018,0.092c-0.161,0.7-0.253,1.405-0.221,2.128c0.014,0.346,0.06,0.677,0.18,0.995v2.244     c0,0.802,0.29,1.58,0.815,2.188c0.129,0.152,0.24,0.318,0.332,0.493l0.378,0.751c0.613,1.207,1.834,1.963,3.193,1.963     c1.354,0,2.58-0.756,3.193-1.963l0.378-0.751c0.092-0.175,0.203-0.341,0.332-0.493c0.525-0.608,0.815-1.387,0.815-2.188V21.69     c0.014-0.041,0.028-0.083,0.037-0.129c0.111-0.507,0.088-1.014,0.037-1.52C57.13,19.861,57.102,19.686,57.075,19.501z      M54.836,19.736c0.405,0.014,1.318,0.189,1.318,1.414v2.552c0,0.58-0.207,1.147-0.59,1.589c-0.18,0.203-0.332,0.433-0.456,0.677     l-0.378,0.746c-0.456,0.903-1.364,1.46-2.373,1.46s-1.916-0.557-2.373-1.46l-0.378-0.746c-0.124-0.244-0.276-0.475-0.456-0.682     c-0.382-0.438-0.59-1.004-0.59-1.585v-1.424c0-0.06,0.005-0.115,0.005-0.175c0.005-0.032,0-0.069,0.009-0.101v-1.027     c0,0,0.078-1.235,1.133-1.235c0,0,1.663,0.728,2.732,0.733C53.302,20.477,54.112,20.211,54.836,19.736"/><path d="M62.521,34.676c-0.089-1.077-0.333-2.11-1.294-2.766c-1.611-1.1-3.53-1.361-5.291-1.957l-2.517,6.623l-0.436-4.374     v-0.131l0.576-0.646c0.013-0.017,0.022-0.035,0.026-0.057c0.009-0.044,0.009-0.087,0.009-0.131c0-0.419-0.34-0.772-0.777-0.772     h-0.912c-0.48,0-0.847,0.432-0.768,0.903c0.004,0.022,0.017,0.039,0.031,0.057l0.646,0.668l-0.493,4.468l-2.497-6.684     c-1.163,0.401-2.288,0.767-3.389,1.157c2.053,1.426,2.483,3.577,2.626,5.297c0.005,0.06,0.284,4.708,0.476,8.248     c4.216,0,8.619,0,12.565,0c0.218,0,0.436,0.003,0.653-0.01c0.72-0.045,1.216-0.545,1.236-1.26     C63.004,42.856,62.558,35.126,62.521,34.676z"/></g><g><path d="M16.375,19.5v-0.157c0-0.028,0-0.051-0.005-0.078c0.028,0.078,0.06,0.147,0.083,0.221     c0.041,0.106,0.074,0.217,0.111,0.322c0-0.018-0.005-0.037-0.005-0.055c-0.051-0.244-0.111-0.488-0.198-0.723     c-0.014-0.244-0.046-0.479-0.101-0.714c0.005,0.014,0.014,0.028,0.023,0.041c-0.014-0.041-0.023-0.083-0.041-0.124     c-0.009-0.028-0.018-0.051-0.028-0.074c-0.06-0.152-0.134-0.295-0.221-0.428c-0.078-0.115-0.166-0.226-0.267-0.322     c-0.051-0.041-0.092-0.092-0.129-0.143c-0.143-0.217-0.304-0.41-0.498-0.567c-0.12-0.097-0.253-0.18-0.405-0.249     c-0.17-0.074-0.346-0.147-0.516-0.221c-0.041-0.018-0.088-0.037-0.129-0.055c0.488,0.037,0.949,0.175,1.396,0.364     c0.088,0.037,0.17,0.074,0.258,0.115c-0.018-0.018-0.037-0.032-0.055-0.046c-0.092-0.06-0.184-0.115-0.276-0.166     c-0.465-0.253-0.967-0.392-1.497-0.451c-0.235-0.028-0.479-0.028-0.705-0.12c-0.078-0.032-0.166-0.046-0.249-0.069     c-0.023-0.005-0.041-0.009-0.065-0.018c-0.097-0.023-0.198-0.046-0.295-0.074V15.69h1.101c-0.009-0.023-0.018-0.028-0.028-0.028     c-0.475-0.069-0.944-0.124-1.424-0.078h-0.018c-0.166,0.014-0.332,0.023-0.498,0c-0.069-0.009-0.147-0.014-0.217-0.018     c-0.005-0.009-0.005-0.014-0.005-0.018v-0.005c0.359-0.065,0.719-0.134,1.101-0.203c-0.382,0.009-0.742,0.032-1.096,0.097     c-0.198,0.032-0.392,0.097-0.59,0.124c-0.286,0.037-0.576,0.051-0.862,0.074c0.567-0.267,1.175-0.387,1.797-0.456     c-0.115,0.005-0.23,0-0.35,0.005c-0.428,0.023-0.857,0.074-1.272,0.189c-0.346,0.092-0.673,0.226-0.954,0.451     c-0.055,0.046-0.12,0.074-0.18,0.111c-0.005-0.009-0.009-0.018-0.018-0.028c0.129-0.092,0.258-0.193,0.392-0.281     c0.138-0.083,0.281-0.161,0.428-0.23c0.143-0.065,0.295-0.12,0.438-0.18c-0.29,0.074-0.567,0.175-0.834,0.309     c-0.438,0.212-0.792,0.553-1.161,0.862c-0.074,0.065-0.152,0.129-0.23,0.189l-0.005,0.005c-0.028,0.046-0.06,0.097-0.088,0.143     c-0.037,0.074-0.069,0.157-0.111,0.226c-0.023,0.032-0.065,0.055-0.101,0.069c-0.074,0.032-0.157,0.051-0.23,0.083     c-0.018,0.009-0.037,0.018-0.055,0.028c-0.088,0.046-0.17,0.097-0.24,0.152c-0.221,0.18-0.364,0.424-0.433,0.723     c0.092-0.189,0.217-0.359,0.392-0.511c-0.051,0.161-0.088,0.309-0.134,0.452c-0.018,0.055-0.046,0.115-0.078,0.166     c-0.092,0.143-0.166,0.295-0.221,0.475c0.074-0.129,0.138-0.24,0.207-0.35c0.005,0.005,0.009,0.009,0.014,0.009     c-0.005,0.032-0.014,0.06-0.018,0.092c-0.161,0.7-0.253,1.405-0.221,2.128c0.014,0.346,0.06,0.677,0.18,0.995v2.244     c0,0.802,0.29,1.58,0.815,2.188c0.129,0.152,0.24,0.318,0.332,0.493l0.378,0.751c0.613,1.207,1.834,1.963,3.193,1.963     c1.354,0,2.58-0.756,3.193-1.963l0.378-0.751c0.092-0.175,0.203-0.341,0.332-0.493c0.525-0.608,0.815-1.387,0.815-2.188v-2.013     c0.014-0.041,0.028-0.083,0.037-0.129c0.111-0.507,0.088-1.014,0.037-1.52C16.43,19.859,16.402,19.684,16.375,19.5z      M14.136,19.735c0.405,0.014,1.318,0.189,1.318,1.414v2.552c0,0.58-0.207,1.147-0.59,1.589c-0.18,0.203-0.332,0.433-0.456,0.677     l-0.378,0.746c-0.456,0.903-1.364,1.46-2.373,1.46s-1.916-0.557-2.373-1.46l-0.378-0.746c-0.124-0.244-0.276-0.475-0.456-0.682     c-0.382-0.438-0.59-1.004-0.59-1.585v-1.424c0-0.06,0.005-0.115,0.005-0.175c0.005-0.032,0-0.069,0.009-0.101v-1.027     c0,0,0.078-1.235,1.133-1.235c0,0,1.663,0.728,2.732,0.733C12.601,20.475,13.412,20.209,14.136,19.735"/><path d="M16.124,35.109c0.352-1.78,1.221-3.205,2.499-4.14c-1.115-0.4-2.282-0.643-3.387-1.017l-2.517,6.623l-0.436-4.374V32.07     l0.576-0.646c0.013-0.017,0.022-0.035,0.026-0.057c0.009-0.044,0.009-0.087,0.009-0.131c0-0.419-0.34-0.772-0.777-0.772h-0.912     c-0.48,0-0.847,0.432-0.768,0.903c0.004,0.022,0.017,0.039,0.031,0.057l0.646,0.668l-0.493,4.468l-2.497-6.684     C6.526,30.427,5,30.909,3.51,31.483c-1.101,0.424-1.697,1.338-1.921,2.47c-0.103,0.52-0.573,8.339-0.58,8.873     c-0.016,1.318,0.423,1.751,1.729,1.751c3.995,0,8.458,0,12.722,0C15.661,41.082,15.981,35.833,16.124,35.109z"/></g></g><g><path d="M34.173,23.581c-0.147,0.264-0.348,0.479-0.601,0.642c-0.253,0.164-0.547,0.282-0.883,0.353    c-0.102,0.022-0.207,0.04-0.313,0.055v0.521h-0.752v-0.469c-0.383,0-0.746-0.032-1.091-0.097    c-0.197-0.037-0.378-0.085-0.545-0.143c-0.21-0.073-0.353-0.27-0.353-0.493v-0.693c0-0.208,0.227-0.337,0.406-0.23    c0.164,0.098,0.336,0.179,0.514,0.243c0.331,0.118,0.665,0.177,1.003,0.177c0.023,0,0.045,0,0.067-0.001    c0.17-0.003,0.321-0.021,0.452-0.053c0.115-0.028,0.215-0.064,0.3-0.108c0.024-0.013,0.047-0.026,0.069-0.04    c0.099-0.063,0.173-0.138,0.222-0.224c0.049-0.086,0.073-0.179,0.073-0.28c0-0.136-0.039-0.258-0.117-0.365    c-0.063-0.087-0.146-0.169-0.247-0.246c-0.023-0.018-0.047-0.035-0.072-0.052c-0.135-0.091-0.294-0.178-0.479-0.262    c-0.065-0.03-0.132-0.06-0.201-0.09c-0.126-0.055-0.259-0.111-0.398-0.168c-0.545-0.227-0.952-0.504-1.219-0.832    c-0.268-0.328-0.401-0.723-0.401-1.187c0-0.363,0.073-0.676,0.219-0.937c0.146-0.261,0.345-0.476,0.596-0.645    c0.252-0.169,0.543-0.293,0.874-0.372c0.108-0.026,0.218-0.047,0.33-0.065v-0.523h0.752v0.469    c0.351,0.001,0.663,0.023,0.936,0.066c0.131,0.021,0.258,0.046,0.38,0.077c0.232,0.059,0.396,0.267,0.396,0.506v0.612    c0,0.197-0.203,0.328-0.382,0.247c-0.138-0.062-0.28-0.113-0.426-0.153c-0.146-0.04-0.291-0.07-0.436-0.09    c-0.144-0.019-0.281-0.029-0.411-0.029c-0.019,0-0.038,0-0.057,0.001c-0.156,0.003-0.3,0.02-0.43,0.05    c-0.124,0.029-0.231,0.068-0.323,0.117c-0.016,0.008-0.032,0.017-0.047,0.027c-0.1,0.061-0.178,0.135-0.233,0.221    c-0.055,0.086-0.083,0.183-0.083,0.29c0,0.117,0.031,0.221,0.092,0.314c0.062,0.092,0.149,0.18,0.263,0.263    c0.003,0.002,0.006,0.004,0.008,0.006c0.112,0.08,0.247,0.16,0.405,0.237c0.107,0.053,0.222,0.106,0.347,0.16    c0.065,0.028,0.133,0.057,0.203,0.086c0.279,0.117,0.53,0.241,0.752,0.372c0.222,0.131,0.413,0.28,0.572,0.445    c0.159,0.166,0.28,0.354,0.365,0.567s0.127,0.46,0.127,0.742C34.394,22.99,34.32,23.317,34.173,23.581z"/><path d="M32,13.833c-4,0-7.242,3.242-7.242,7.242c0,3.999,3.242,7.242,7.242,7.242s7.242-3.242,7.242-7.242    C39.242,17.076,35.999,13.833,32,13.833z M32,26.76c-3.139,0-5.684-2.545-5.684-5.684c0-3.139,2.545-5.684,5.684-5.684    c3.139,0,5.684,2.545,5.684,5.684C37.684,24.215,35.139,26.76,32,26.76z"/></g></g><text x="0" y="79" fill="#000000" font-size="5px" font-weight="bold" font-family="'Helvetica Neue', Helvetica, Arial-Unicode, Arial, Sans-serif">Created by Arafat Uddin</text><text x="0" y="84" fill="#000000" font-size="5px" font-weight="bold" font-family="'Helvetica Neue', Helvetica, Arial-Unicode, Arial, Sans-serif">from the Noun Project</text></svg>