<svg width="77" height="50" viewBox="0 0 77 50" fill="none" xmlns="http://www.w3.org/2000/svg">
<path d="M51.7966 27.7791L45.2326 24.8639C44.7624 24.6571 44.4615 24.2057 44.4615 23.6979V21.8923C46.662 20.1432 48.0726 17.4349 48.0726 14.4068V11.8678C48.8061 11.4728 49.2763 10.6829 49.2763 9.81772V9.57322C49.2763 4.28823 44.9881 6.10352e-05 39.7032 6.10352e-05H37.2958C32.0108 6.10352e-05 27.7226 4.28823 27.7226 9.57322V11.8113C27.7226 12.5825 28.0423 13.2595 28.6254 13.7109C28.7194 13.7862 28.8323 13.8614 28.9263 13.9178V14.4068C28.9263 17.4349 30.3369 20.1432 32.5374 21.8923V23.6979C32.5374 24.2057 32.2365 24.6571 31.7851 24.8639L25.2212 27.7791C23.0771 28.7383 21.6853 30.8636 21.6853 33.2146V48.1668C21.6853 48.7874 22.1931 49.2952 22.8138 49.2952C23.4344 49.2952 23.9422 48.7874 23.9422 48.1668V33.2146C23.9422 33.0829 23.9422 32.9513 23.961 32.8196L26.9891 35.8477C27.4593 36.3179 27.7226 36.9385 27.7226 37.6156V48.1856C27.7226 48.8062 28.2304 49.3141 28.8511 49.3141C29.4717 49.3141 29.9795 48.8062 29.9795 48.1856V37.6156C29.9795 36.3555 29.4905 35.1518 28.5878 34.2678L25.0143 30.6379C25.334 30.2994 25.729 30.0173 26.1804 29.8292L32.6314 26.9704L37.4086 31.7476V48.1668C37.4086 48.7874 37.9164 49.2952 38.5371 49.2952C39.1577 49.2952 39.6655 48.7874 39.6655 48.1668V31.7476L44.4427 26.9704L50.8938 29.8292C51.3452 30.0173 51.7213 30.2994 52.0599 30.6379L48.4488 34.249C47.546 35.1518 47.057 36.3367 47.057 37.5968V48.1668C47.057 48.7874 47.5648 49.2952 48.1855 49.2952C48.8061 49.2952 49.3139 48.7874 49.3139 48.1668V37.5968C49.3139 36.9385 49.5772 36.2991 50.0474 35.8289L53.0755 32.8008C53.0943 32.9325 53.0943 33.0641 53.0943 33.1958V48.148C53.0943 48.7686 53.6021 49.2764 54.2228 49.2764C54.8434 49.2764 55.3512 48.7686 55.3512 48.148V33.1958C55.3324 30.8636 53.9406 28.7195 51.7966 27.7791ZM38.5183 29.6787L34.3241 25.4846C34.6439 24.9392 34.8319 24.3185 34.8319 23.6791V23.2277C35.9792 23.6979 37.2205 23.9612 38.5371 23.9612C39.8536 23.9612 41.0949 23.6979 42.2422 23.2277V23.6791C42.2422 24.3373 42.4303 24.958 42.75 25.4846L38.5183 29.6787ZM38.5183 21.7042C34.4934 21.7042 31.202 18.4317 31.202 14.388V13.8802C31.8979 13.5981 32.5938 13.1655 33.2521 12.5448C33.7035 12.1311 33.7411 11.4164 33.3085 10.9462C32.8947 10.4948 32.18 10.4572 31.7098 10.8898C31.1456 11.4164 30.5814 11.7549 30.036 11.8866C30.0171 11.8866 30.0171 11.8866 29.9983 11.8866C29.9983 11.8678 29.9795 11.8302 29.9795 11.7925V9.57322C29.9795 5.54836 33.2521 2.25699 37.2958 2.25699H39.7032C43.728 2.25699 47.0194 5.52955 47.0194 9.57322V9.81772C47.0194 9.85534 47.0006 9.89295 46.963 9.89295C40.211 11.2283 36.8256 8.70806 35.6783 7.56079C35.2457 7.12821 34.531 7.12821 34.0796 7.56079C33.647 7.99337 33.647 8.70806 34.0796 9.15945C37.5779 12.6577 42.6936 12.7329 45.8157 12.3568V14.388C45.8345 18.4317 42.5431 21.7042 38.5183 21.7042Z" fill="#001D45"/>
<path d="M20.35 21.629V19.2216C20.35 16.2688 18.8265 13.6921 16.5132 12.1875C16.6636 11.7361 16.7389 11.2471 16.7389 10.7769C16.7389 8.16263 14.6136 6.03735 11.9993 6.03735C9.38502 6.03735 7.25974 8.16263 7.25974 10.7769C7.25974 11.2659 7.33497 11.7361 7.48543 12.1875C5.17208 13.6733 3.64865 16.2688 3.64865 19.2216V21.629C3.64865 24.4878 5.07804 27.008 7.25974 28.5126V30.9953C7.25974 31.4843 6.99643 31.9169 6.54504 32.1425L2.63303 34.0986C1.01556 34.9073 -6.10352e-05 36.5436 -6.10352e-05 38.3491V48.1668C-6.10352e-05 48.7874 0.507749 49.2952 1.12841 49.2952C1.74906 49.2952 2.25687 48.7874 2.25687 48.1668V38.8381L4.10003 40.6813C4.57023 41.1515 4.83354 41.7721 4.83354 42.4492V48.1856C4.83354 48.8062 5.34135 49.314 5.962 49.314C6.58266 49.314 7.09047 48.8062 7.09047 48.1856V42.4492C7.09047 41.1891 6.60147 39.9854 5.6987 39.1014L3.14084 36.5436C3.12203 36.5248 3.12203 36.5248 3.10322 36.506C3.27249 36.3555 3.44176 36.2426 3.64865 36.1486L7.56067 34.1926C7.76755 34.0986 7.95563 33.9669 8.1249 33.8352L10.8896 36.6V48.1856C10.8896 48.8062 11.3975 49.314 12.0181 49.314C12.6388 49.314 13.1466 48.8062 13.1466 48.1856V36.6L15.9113 33.8352C16.0806 33.9669 16.2687 34.0798 16.4756 34.1926L17.5476 34.738C17.7169 34.8133 17.8861 34.8509 18.0554 34.8509C18.4692 34.8509 18.8641 34.6252 19.071 34.2302C19.3531 33.666 19.1274 32.9889 18.5632 32.7068L17.4912 32.1614C17.0586 31.9357 16.7765 31.5031 16.7765 31.0141V28.5315C18.9206 27.008 20.35 24.4878 20.35 21.629ZM11.9805 8.29429C13.3535 8.29429 14.4819 9.40395 14.4819 10.7769C14.4819 10.9274 14.4631 11.0778 14.4443 11.2283C13.6732 10.9838 12.8456 10.871 11.9993 10.871C11.153 10.871 10.3254 11.0026 9.55429 11.2283C9.53548 11.0778 9.51667 10.9274 9.51667 10.7769C9.49787 9.40395 10.6075 8.29429 11.9805 8.29429ZM11.9805 13.1091C15.3471 13.1091 18.093 15.855 18.093 19.2216V19.6354C13.3911 21.0648 10.5887 17.4913 10.4759 17.3408C10.2878 17.0775 9.98687 16.9082 9.64833 16.8894C9.3286 16.8706 9.00886 16.9835 8.76436 17.2092C7.69232 18.2812 6.63908 18.8078 5.86797 19.0523C5.962 15.761 8.67032 13.1091 11.9805 13.1091ZM11.9805 34.5123L9.36621 31.898C9.44144 31.6159 9.47906 31.2962 9.47906 30.9953V29.6223C10.269 29.8668 11.0965 29.9985 11.9617 29.9985C12.8268 29.9985 13.6732 29.8668 14.4443 29.6223V30.9953C14.4443 31.315 14.4819 31.6159 14.5572 31.898L11.9805 34.5123ZM11.9805 27.7415C8.6139 27.7415 5.86797 24.9956 5.86797 21.629V21.4033C6.77074 21.1964 8.10609 20.7074 9.49787 19.5978C9.98687 20.068 10.7016 20.6322 11.5855 21.1212C12.6388 21.7042 14.1058 22.2308 15.8925 22.2308C16.5696 22.2308 17.3031 22.1556 18.0742 21.9675C17.9049 25.1837 15.2342 27.7415 11.9805 27.7415Z" fill="#001D45"/>
<path d="M74.4035 31.6912L68.0841 28.5315C67.6515 28.3058 67.3694 27.8732 67.3694 27.3842V25.7856C68.8552 24.469 69.7768 22.5694 69.7768 20.4253V19.1464C69.7956 19.1464 69.8332 19.1464 69.852 19.1464C70.4727 19.1464 70.9805 18.6386 70.9805 18.018V15.6106C70.9805 11.6609 67.7644 8.44479 63.8147 8.44479H61.4073C57.4577 8.44479 54.2416 11.6609 54.2416 15.6106V18.018C54.2416 18.6386 54.7494 19.1464 55.37 19.1464C55.37 19.1464 55.4077 19.1464 55.4453 19.1464V20.4253C55.4453 22.5506 56.3857 24.469 57.8527 25.7856V27.3842C57.8527 27.8732 57.5894 28.3058 57.138 28.5315C56.5737 28.8136 56.3481 29.4907 56.6302 30.0549C56.8371 30.4499 57.232 30.6756 57.6458 30.6756C57.8151 30.6756 57.9843 30.638 58.1536 30.5627C58.3605 30.4687 58.5486 30.337 58.7178 30.2054L61.4826 32.9701V48.1856C61.4826 48.8063 61.9904 49.3141 62.611 49.3141C63.2317 49.3141 63.7395 48.8063 63.7395 48.1856V32.9701L66.5042 30.2054C66.6735 30.337 66.8616 30.4499 67.0685 30.5627L73.181 33.6096L71.319 35.4716C70.4163 36.3743 69.9273 37.5592 69.9273 38.8194V48.1856C69.9273 48.8063 70.4351 49.3141 71.0557 49.3141C71.6764 49.3141 72.1842 48.8063 72.1842 48.1856V38.8194C72.1842 38.1611 72.4475 37.5216 72.9177 37.0514L74.6668 35.3023C74.7232 35.5092 74.7421 35.7161 74.7421 35.9418V48.1856C74.7421 48.8063 75.2499 49.3141 75.8705 49.3141C76.4912 49.3141 76.999 48.8063 76.999 48.1856V35.923C77.0366 34.1174 76.0398 32.4999 74.4035 31.6912ZM56.5361 16.645V15.6106C56.5361 12.9022 58.7366 10.7017 61.445 10.7017H63.8524C66.5607 10.7017 68.7612 12.9022 68.7612 15.6106V16.8707C63.8524 16.6074 60.8995 14.689 60.8619 14.6702C60.6738 14.5385 60.4481 14.4821 60.2413 14.4821C59.9591 14.4821 59.6582 14.5949 59.4513 14.8206C58.3417 15.8927 57.2884 16.4005 56.5361 16.645ZM62.6487 30.9013L60.0344 28.287C60.1096 28.0049 60.1472 27.6852 60.1472 27.3842V27.1397C60.9183 27.4218 61.7647 27.5911 62.6298 27.5911C63.5138 27.5911 64.3414 27.4406 65.1125 27.1397V27.3842C65.1125 27.704 65.1501 28.0049 65.2253 28.287L62.6487 30.9013ZM62.6487 25.3342C59.9403 25.3342 57.7398 23.1337 57.7398 20.4253V18.601C58.5298 18.2813 59.4513 17.7923 60.3917 16.9835C61.5766 17.6042 64.0592 18.6574 67.5575 19.0148V20.4065C67.5387 23.1337 65.3382 25.3342 62.6487 25.3342Z" fill="#001D45"/>
</svg>
