<svg width="47" height="67" viewBox="0 0 47 67" fill="none" xmlns="http://www.w3.org/2000/svg">
<path d="M9.83718 30.3174L9.65907 30.0183C9.52143 29.7872 9.33406 29.5352 9.11963 29.2604C9.06014 29.1842 8.99805 29.1056 8.93487 29.0256C8.77802 28.827 8.61446 28.6199 8.4674 28.4197C8.26054 28.1382 8.06006 27.8362 7.92753 27.5347C7.79709 27.2379 7.70383 26.8772 7.80318 26.5103L7.8037 26.5083C8.30136 24.6988 9.42969 23.6678 10.9349 23.1565C12.004 22.7933 13.2566 22.6937 14.5943 22.7276C11.334 19.7831 9.71826 16.4831 9.98411 12.4568L9.98431 12.4538C10.2199 9.19023 11.6973 6.41524 14.2718 4.25298C19.5357 -0.281659 27.6514 -0.11865 32.7381 4.57865C35.5628 7.18712 36.8964 10.2685 36.6582 13.547C36.4405 16.5431 34.9156 19.6321 32.1595 22.6164C32.2677 22.6196 32.3764 22.6224 32.4857 22.6252C32.7709 22.6325 33.061 22.64 33.3619 22.6559C34.1115 22.6954 34.8921 22.7889 35.5549 23.1256L35.5599 23.1281L35.5599 23.1281C36.2599 23.4935 36.9517 24.0223 37.5228 24.626C38.0909 25.2265 38.5642 25.9275 38.7913 26.6464L38.795 26.6582L38.7949 26.6583C38.9016 27.028 38.7928 27.3903 38.6549 27.6765C38.5132 27.9708 38.3003 28.2674 38.0789 28.5456C37.9007 28.7695 37.7019 28.9998 37.5111 29.2207C37.4636 29.2756 37.4166 29.33 37.3706 29.3836C37.1339 29.6591 36.9193 29.916 36.7515 30.1543L36.5579 30.4294L36.3805 30.3884C36.7443 32.1981 37.0989 34.0158 37.4531 35.8319C37.8616 37.926 38.2696 40.018 38.6917 42.0966C38.9684 43.4473 39.2528 44.795 39.5371 46.1424C40.0606 48.623 40.584 51.1029 41.059 53.5997C41.1686 54.1561 41.2939 54.5648 41.5211 54.8923C41.7394 55.2069 42.0832 55.4901 42.7132 55.7228L42.7181 55.7246C43.4826 56.0162 44.1406 56.6025 44.6697 57.3079C45.2014 58.0168 45.6246 58.8744 45.9101 59.7579C46.1955 60.641 46.3496 61.5691 46.3276 62.4234C46.3059 63.271 46.109 64.0919 45.6442 64.7119L45.6397 64.7179L45.6397 64.7179C45.4056 65.0204 45.0202 65.2028 44.6965 65.3095C44.3552 65.4221 43.9784 65.4842 43.6667 65.4842M9.83718 30.3174L43.6667 64.9842M9.83718 30.3174L10.1795 30.2542C10.1834 30.2534 10.1873 30.2527 10.1912 30.252M9.83718 30.3174L10.2977 29.7244C10.2622 29.9002 10.2267 30.0761 10.1912 30.252M43.6667 65.4842V64.9842M43.6667 65.4842C43.6673 65.4842 43.668 65.4842 43.6686 65.4842L43.6667 64.9842M43.6667 65.4842C36.8774 65.5102 30.0882 65.5102 23.3001 65.5102C16.5111 65.5102 9.72325 65.5102 2.93552 65.5363L2.9336 65.5363C2.19905 65.5363 1.56634 65.4199 1.12529 65.0029C0.681679 64.5835 0.54805 63.9702 0.518544 63.289L0.517998 63.2764L0.518157 63.2764C0.51656 63.1879 0.514836 63.099 0.513105 63.0096C0.484948 61.5564 0.454792 60 0.934056 58.6458C1.46391 57.1487 2.59429 55.9384 4.81289 55.2463L4.8147 55.2457C4.84407 55.2367 4.9342 55.1834 5.03595 55.0498C5.13349 54.9218 5.18784 54.7899 5.20009 54.7107L5.20208 54.6978L5.20474 54.685C6.90275 46.5414 8.54754 38.3976 10.1912 30.252M43.6667 64.9842C36.8778 65.0102 30.089 65.0102 23.3001 65.0102C16.5113 65.0102 9.72245 65.0102 2.9336 65.0363C1.52513 65.0363 1.07441 64.568 1.01808 63.2674C1.01664 63.1877 1.01513 63.1081 1.01362 63.0285C0.955936 59.9877 0.899092 56.991 4.9618 55.7236C5.29984 55.6195 5.63787 55.1513 5.69421 54.7871C7.4055 46.5798 9.06269 38.3725 10.7188 30.1652C10.5964 30.1786 10.4162 30.2105 10.1912 30.252M35.7229 29.6584C35.8356 29.6845 35.9342 29.7235 36.0328 29.7625C36.1101 29.7931 36.1874 29.8237 36.2715 29.848C36.2832 29.9061 36.295 29.9641 36.3067 30.0222L35.7229 29.6584ZM35.7229 29.6584C35.7611 29.8465 35.7991 30.0346 35.8371 30.2228L35.7229 29.6584ZM23.4366 3.93721C29.1145 3.98714 33.5859 8.21993 33.5327 13.4211C33.4796 18.5717 28.9539 22.7572 23.22 22.7072C17.4859 22.6572 13.0707 18.4766 13.1239 13.2233C13.177 8.02233 17.7009 3.88724 23.4366 3.93721ZM23.4366 3.93721L23.441 3.43723L23.4366 3.93721ZM15.3138 29.69L15.3138 29.69L15.3194 29.6901C19.7504 29.7681 24.2146 29.7585 28.7754 29.7488C30.1756 29.7458 31.5849 29.7428 33.0051 29.7423C33.7508 33.3771 34.4962 36.9847 35.2416 40.592C36.2308 45.3797 37.2199 50.1667 38.2093 55.0155H38.1537H38.093H38.0323H37.9717H37.911H37.8503H37.7897H37.729H37.6684H37.6077H37.5471H37.4864H37.4258H37.3652H37.3046H37.2439H37.1833H37.1227H37.0621H37.0015H36.9409H36.8803H36.8198H36.7592H36.6986H36.638H36.5775H36.5169H36.4563H36.3958H36.3352H36.2747H36.2141H36.1536H36.0931H36.0325H35.972H35.9115H35.8509H35.7904H35.7299H35.6694H35.6089H35.5484H35.4879H35.4274H35.3669H35.3064H35.246H35.1855H35.125H35.0645H35.0041H34.9436H34.8831H34.8227H34.7622H34.7018H34.6413H34.5809H34.5205H34.46H34.3996H34.3392H34.2787H34.2183H34.1579H34.0975H34.0371H33.9767H33.9162H33.8558H33.7954H33.735H33.6746H33.6143H33.5539H33.4935H33.4331H33.3727H33.3123H33.252H33.1916H33.1312H33.0709H33.0105H32.9501H32.8898H32.8294H32.7691H32.7087H32.6484H32.588H32.5277H32.4674H32.407H32.3467H32.2864H32.226H32.1657H32.1054H32.0451H31.9847H31.9244H31.8641H31.8038H31.7435H31.6832H31.6229H31.5626H31.5023H31.442H31.3817H31.3214H31.2611H31.2008H31.1405H31.0802H31.0199H30.9596H30.8994H30.8391H30.7788H30.7185H30.6582H30.598H30.5377H30.4774H30.4172H30.3569H30.2966H30.2364H30.1761H30.1159H30.0556H29.9953H29.9351H29.8748H29.8146H29.7543H29.6941H29.6338H29.5736H29.5133H29.4531H29.3928H29.3326H29.2724H29.2121H29.1519H29.0917H29.0314H28.9712H28.9109H28.8507H28.7905H28.7303H28.67H28.6098H28.5496H28.4893H28.4291H28.3689H28.3087H28.2484H28.1882H28.128H28.0678H28.0075H27.9473H27.8871H27.8269H27.7667H27.7065H27.6462H27.586H27.5258H27.4656H27.4054H27.3452H27.2849H27.2247H27.1645H27.1043H27.0441H26.9839H26.9237H26.8634H26.8032H26.743H26.6828H26.6226H26.5624H26.5022H26.442H26.3817H26.3215H26.2613H26.2011H26.1409H26.0807H26.0205H25.9603H25.9H25.8398H25.7796H25.7194H25.6592H25.599H25.5388H25.4785H25.4183H25.3581H25.2979H25.2377H25.1775H25.1172H25.057H24.9968H24.9366H24.8764H24.8161H24.7559H24.6957H24.6355H24.5752H24.515H24.4548H24.3946H24.3343H24.2741H24.2139H24.1537H24.0934H24.0332H23.973H23.9127H23.8525H23.7923H23.732H23.6718H23.6115H23.5513H23.4911H23.4308H23.3706H23.3103H23.2501H23.1898H23.1296H23.0693H23.0091H22.9488H22.8886H22.8283H22.768H22.7078H22.6475H22.5873H22.527H22.4667H22.4065H22.3462H22.2859H22.2256H22.1654H22.1051H22.0448H21.9845H21.9243H21.864H21.8037H21.7434H21.6831H21.6228H21.5625H21.5022H21.4419H21.3816H21.3213H21.261H21.2007H21.1404H21.0801H21.0198H20.9595H20.8991H20.8388H20.7785H20.7182H20.6578H20.5975H20.5372H20.4768H20.4165H20.3562H20.2958H20.2355H20.1751H20.1148H20.0544H19.9941H19.9337H19.8734H19.813H19.7526H19.6923H19.6319H19.5715H19.5111H19.4507H19.3904H19.33H19.2696H19.2092H19.1488H19.0884H19.028H18.9676H18.9072H18.8468H18.7864H18.7259H18.6655H18.6051H18.5447H18.4842H18.4238H18.3634H18.3029H18.2425H18.182H18.1216H18.0611H18.0007H17.9402H17.8797H17.8193H17.7588H17.6983H17.6378H17.5774H17.5169H17.4564H17.3959H17.3354H17.2749H17.2144H17.1539H17.0934H17.0328H16.9723H16.9118H16.8513H16.7907H16.7302H16.6697H16.6091H16.5486H16.488H16.4274H16.3669H16.3063H16.2457H16.1852H16.1246H16.064H16.0034H15.9428H15.8822H15.8216H15.761H15.7004H15.6398H15.5792H15.5186H15.4579H15.3973H15.3367H15.276H15.2154H15.1547H15.0941H15.0334H14.9727H14.9121H14.8514H14.7907H14.73H14.6693H14.6086H14.5479H14.4872H14.4265H14.3658H14.3051H14.2444H14.1836H14.1229H14.0622H14.0014H13.9407H13.8799H13.8192H13.7584H13.6976H13.6368H13.5761H13.5153H13.4545H13.3937H13.3329H13.2721H13.2113H13.1504H13.0896H13.0288H12.9679H12.9071H12.8463H12.7854H12.7245H12.6637H12.6028H12.5419H12.481H12.4202H12.3593H12.2984H12.2375H12.1765H12.1156H12.0547H11.9938H11.9328H11.8719H11.8109H11.75H11.689H11.6281H11.5671H11.5061H11.4451H11.3841H11.3231H11.2621H11.2011H11.1401H11.0791H11.0181H10.957H10.896H10.8349H10.7739H10.7128H10.6517H10.5907H10.5296H10.4685H10.4074H10.3463H10.2852H10.2241H10.163H10.1018H10.0407H9.97956H9.91841H9.85725H9.79609H9.73492H9.67375H9.61256H9.55137H9.49017H9.42897H9.36776H9.30654H9.24531H9.18408H9.12284H9.06159H9.00034H8.93908H8.87781H8.81653H8.75525H8.69396H8.63266H8.57135H8.51004H8.44872H8.43367C8.79267 53.0368 9.15511 51.1016 9.56375 49.1676L9.56378 49.1676L9.56489 49.162C10.0365 46.7979 10.5272 44.4281 11.0184 42.0562C11.7562 38.493 12.495 34.9251 13.1715 31.3646L13.1718 31.363C13.3074 30.6363 13.4921 30.25 13.7559 30.0278C14.0163 29.8085 14.4551 29.6652 15.3138 29.69ZM38.4272 58.0965C39.5619 58.0965 40.4209 58.1458 41.0701 58.2797C41.7154 58.4128 42.0999 58.6189 42.3425 58.8914C42.5849 59.1638 42.7456 59.5697 42.8014 60.2286C42.8501 60.8036 42.8158 61.5303 42.7146 62.4552H42.6923H42.6144H42.5365H42.4586H42.3808H42.3029H42.225H42.1472H42.0693H41.9915H41.9136H41.8358H41.7579H41.6801H41.6023H41.5244H41.4466H41.3688H41.291H41.2132H41.1353H41.0575H40.9797H40.9019H40.8241H40.7463H40.6686H40.5908H40.513H40.4352H40.3574H40.2797H40.2019H40.1241H40.0464H39.9686H39.8909H39.8131H39.7354H39.6576H39.5799H39.5021H39.4244H39.3467H39.2689H39.1912H39.1135H39.0358H38.9581H38.8804H38.8027H38.7249H38.6473H38.5696H38.4919H38.4142H38.3365H38.2588H38.1811H38.1034H38.0258H37.9481H37.8704H37.7928H37.7151H37.6374H37.5598H37.4821H37.4045H37.3268H37.2492H37.1716H37.0939H37.0163H36.9387H36.861H36.7834H36.7058H36.6282H36.5505H36.4729H36.3953H36.3177H36.2401H36.1625H36.0849H36.0073H35.9297H35.8521H35.7746H35.697H35.6194H35.5418H35.4642H35.3867H35.3091H35.2315H35.154H35.0764H34.9989H34.9213H34.8438H34.7662H34.6887H34.6111H34.5336H34.456H34.3785H34.301H34.2234H34.1459H34.0684H33.9909H33.9133H33.8358H33.7583H33.6808H33.6033H33.5258H33.4483H33.3708H33.2933H33.2158H33.1383H33.0608H32.9833H32.9058H32.8284H32.7509H32.6734H32.5959H32.5185H32.441H32.3635H32.2861H32.2086H32.1311H32.0537H31.9762H31.8988H31.8213H31.7439H31.6664H31.589H31.5115H31.4341H31.3567H31.2792H31.2018H31.1244H31.047H30.9695H30.8921H30.8147H30.7373H30.6599H30.5824H30.505H30.4276H30.3502H30.2728H30.1954H30.118H30.0406H29.9632H29.8858H29.8084H29.731H29.6537H29.5763H29.4989H29.4215H29.3441H29.2668H29.1894H29.112H29.0346H28.9573H28.8799H28.8025H28.7252H28.6478H28.5705H28.4931H28.4158H28.3384H28.2611H28.1837H28.1064H28.029H27.9517H27.8743H27.797H27.7197H27.6423H27.565H27.4877H27.4103H27.333H27.2557H27.1784H27.101H27.0237H26.9464H26.8691H26.7918H26.7144H26.6371H26.5598H26.4825H26.4052H26.3279H26.2506H26.1733H26.096H26.0187H25.9414H25.8641H25.7868H25.7095H25.6322H25.5549H25.4777H25.4004H25.3231H25.2458H25.1685H25.0912H25.014H24.9367H24.8594H24.7821H24.7049H24.6276H24.5503H24.4731H24.3958H24.3185H24.2413H24.164H24.0868H24.0095H23.9322H23.855H23.7777H23.7005H23.6232H23.546H23.4687H23.3915H23.3142H23.237H23.1597H23.0825H23.0053H22.928H22.8508H22.7735H22.6963H22.6191H22.5418H22.4646H22.3874H22.3101H22.2329H22.1557H22.0784H22.0012H21.924H21.8468H21.7696H21.6923H21.6151H21.5379H21.4607H21.3835H21.3062H21.229H21.1518H21.0746H20.9974H20.9202H20.843H20.7657H20.6885H20.6113H20.5341H20.4569H20.3797H20.3025H20.2253H20.1481H20.0709H19.9937H19.9165H19.8393H19.7621H19.6849H19.6077H19.5305H19.4533H19.3761H19.2989H19.2217H19.1446H19.0674H18.9902H18.913H18.8358H18.7586H18.6814H18.6042H18.5271H18.4499H18.3727H18.2955H18.2183H18.1411H18.064H17.9868H17.9096H17.8324H17.7552H17.678H17.6009H17.5237H17.4465H17.3693H17.2922H17.215H17.1378H17.0606H16.9835H16.9063H16.8291H16.7519H16.6748H16.5976H16.5204H16.4433H16.3661H16.2889H16.2117H16.1346H16.0574H15.9802H15.9031H15.8259H15.7487H15.6716H15.5944H15.5172H15.4401H15.3629H15.2857H15.2086H15.1314H15.0542H14.9771H14.8999H14.8227H14.7456H14.6684H14.5912H14.5141H14.4369H14.3597H14.2826H14.2054H14.1283H14.0511H13.9739H13.8968H13.8196H13.7424H13.6653H13.5881H13.5109H13.4338H13.3566H13.2795H13.2023H13.1251H13.048H12.9708H12.8936H12.8165H12.7393H12.6621H12.585H12.5078H12.4306H12.3535H12.2763H12.1992H12.122H12.0448H11.9677H11.8905H11.8133H11.7362H11.659H11.5818H11.5047H11.4275H11.3503H11.2732H11.196H11.1188H11.0417H10.9645H10.8873H10.8102H10.733H10.6558H10.5786H10.5015H10.4243H10.3471H10.27H10.1928H10.1156H10.0384H9.96127H9.88409H9.80692H9.72974H9.65257H9.57539H9.49822H9.42104H9.34386H9.26669H9.18951H9.11233H9.03515H8.95797H8.88079H8.80361H8.72642H8.64924H8.57206H8.49487H8.41769H8.34051H8.26332H8.18613H8.10895H8.03176H7.95457H7.87738H7.80019H7.723H7.64581H7.56862H7.49142H7.41423H7.33703H7.25984H7.18264H7.10545H7.02825H6.95105H6.87385H6.79665H6.71945H6.64225H6.56504H6.48784H6.41063H6.33343H6.25622H6.17902H6.10181H6.0246H5.94739H5.87018H5.79296H5.71575H5.63854H5.56132H5.4841H5.40689H5.32967H5.25245H5.17523H5.09801H5.02078H4.94356H4.86633H4.78911H4.71188H4.63465H4.55742H4.48019H4.40296H4.32573H4.24849H4.17126H4.09402H4.01678H3.93954H3.93216C3.49416 60.7991 3.62246 59.7835 4.12416 59.1673C4.67353 58.4926 5.82557 58.0965 7.89143 58.0965H7.95118H8.01093H8.07068H8.13042H8.19017H8.24991H8.30965H8.36939H8.42913H8.48887H8.54861H8.60834H8.66808H8.72781H8.78754H8.84727H8.907H8.96673H9.02646H9.08618H9.14591H9.20563H9.26535H9.32508H9.3848H9.44451H9.50423H9.56395H9.62366H9.68338H9.74309H9.8028H9.86251H9.92222H9.98193H10.0416H10.1013H10.1611H10.2208H10.2805H10.3402H10.3999H10.4596H10.5193H10.579H10.6387H10.6984H10.758H10.8177H10.8774H10.9371H10.9968H11.0565H11.1162H11.1759H11.2356H11.2952H11.3549H11.4146H11.4743H11.534H11.5937H11.6533H11.713H11.7727H11.8324H11.892H11.9517H12.0114H12.0711H12.1307H12.1904H12.2501H12.3098H12.3694H12.4291H12.4888H12.5484H12.6081H12.6677H12.7274H12.7871H12.8467H12.9064H12.9661H13.0257H13.0854H13.145H13.2047H13.2643H13.324H13.3836H13.4433H13.5029H13.5626H13.6222H13.6819H13.7415H13.8012H13.8608H13.9205H13.9801H14.0398H14.0994H14.1591H14.2187H14.2783H14.338H14.3976H14.4573H14.5169H14.5765H14.6362H14.6958H14.7554H14.8151H14.8747H14.9343H14.994H15.0536H15.1132H15.1729H15.2325H15.2921H15.3518H15.4114H15.471H15.5306H15.5903H15.6499H15.7095H15.7691H15.8288H15.8884H15.948H16.0076H16.0673H16.1269H16.1865H16.2461H16.3057H16.3654H16.425H16.4846H16.5442H16.6038H16.6634H16.7231H16.7827H16.8423H16.9019H16.9615H17.0211H17.0807H17.1403H17.1999H17.2596H17.3192H17.3788H17.4384H17.498H17.5576H17.6172H17.6768H17.7364H17.796H17.8556H17.9152H17.9748H18.0344H18.094H18.1537H18.2133H18.2729H18.3325H18.3921H18.4517H18.5113H18.5709H18.6305H18.6901H18.7497H18.8093H18.8689H18.9285H18.9881H19.0476H19.1072H19.1668H19.2264H19.286H19.3456H19.4052H19.4648H19.5244H19.584H19.6436H19.7032H19.7628H19.8224H19.882H19.9416H20.0012H20.0608H20.1203H20.1799H20.2395H20.2991H20.3587H20.4183H20.4779H20.5375H20.5971H20.6567H20.7162H20.7758H20.8354H20.895H20.9546H21.0142H21.0738H21.1334H21.193H21.2525H21.3121H21.3717H21.4313H21.4909H21.5505H21.6101H21.6697H21.7292H21.7888H21.8484H21.908H21.9676H22.0272H22.0868H22.1463H22.2059H22.2655H22.3251H22.3847H22.4443H22.5039H22.5634H22.623H22.6826H22.7422H22.8018H22.8614H22.921H22.9805H23.0401H23.0997H23.1593H23.2189H23.2785H23.3381H23.3976H23.4572H23.5168H23.5764H23.636H23.6956H23.7551H23.8147H23.8743H23.9339H23.9935H24.0531H24.1127H24.1722H24.2318H24.2914H24.351H24.4106H24.4702H24.5298H24.5893H24.6489H24.7085H24.7681H24.8277H24.8873H24.9469H25.0065H25.066H25.1256H25.1852H25.2448H25.3044H25.364H25.4236H25.4832H25.5428H25.6023H25.6619H25.7215H25.7811H25.8407H25.9003H25.9599H26.0195H26.0791H26.1387H26.1982H26.2578H26.3174H26.377H26.4366H26.4962H26.5558H26.6154H26.675H26.7346H26.7942H26.8538H26.9134H26.973H27.0326H27.0922H27.1517H27.2113H27.2709H27.3305H27.3901H27.4497H27.5093H27.5689H27.6285H27.6881H27.7477H27.8073H27.8669H27.9265H27.9861H28.0457H28.1053H28.1649H28.2245H28.2841H28.3438H28.4034H28.463H28.5226H28.5822H28.6418H28.7014H28.761H28.8206H28.8802H28.9398H28.9994H29.059H29.1186H29.1783H29.2379H29.2975H29.3571H29.4167H29.4763H29.5359H29.5955H29.6552H29.7148H29.7744H29.834H29.8936H29.9532H30.0129H30.0725H30.1321H30.1917H30.2513H30.311H30.3706H30.4302H30.4898H30.5494H30.6091H30.6687H30.7283H30.7879H30.8476H30.9072H30.9668H31.0265H31.0861H31.1457H31.2053H31.265H31.3246H31.3842H31.4439H31.5035H31.5631H31.6228H31.6824H31.7421H31.8017H31.8613H31.921H31.9806H32.0403H32.0999H32.1595H32.2192H32.2788H32.3385H32.3981H32.4578H32.5174H32.5771H32.6367H32.6963H32.756H32.8156H32.8753H32.935H32.9946H33.0543H33.1139H33.1736H33.2332H33.2929H33.3525H33.4122H33.4719H33.5315H33.5912H33.6508H33.7105H33.7702H33.8298H33.8895H33.9492H34.0088H34.0685H34.1282H34.1879H34.2475H34.3072H34.3669H34.4265H34.4862H34.5459H34.6056H34.6653H34.7249H34.7846H34.8443H34.904H34.9637H35.0233H35.083H35.1427H35.2024H35.2621H35.3218H35.3815H35.4412H35.5009H35.5605H35.6202H35.6799H35.7396H35.7993H35.859H35.9187H35.9784H36.0381H36.0978H36.1575H36.2172H36.277H36.3367H36.3964H36.4561H36.5158H36.5755H36.6352H36.6949H36.7546H36.8144H36.8741H36.9338H36.9935H37.0532H37.113H37.1727H37.2324H37.2921H37.3519H37.4116H37.4713H37.5311H37.5908H37.6505H37.7103H37.77H37.8297H37.8895H37.9492H38.0089H38.0687H38.1284H38.1882H38.2479H38.3077H38.3674H38.4272Z" fill="#5CDEFF" stroke="#5CDEFF"/>
</svg>
