<svg width="235" height="138" viewBox="0 0 235 138" fill="none" xmlns="http://www.w3.org/2000/svg">
<path d="M135.939 61.071C145.13 64.1837 155.149 65.5491 163.557 71.2906C168.572 74.7173 169.843 80.107 170.312 85.7274C170.505 88.0724 172.831 128.429 172.763 130.785C172.657 134.522 170.066 137.132 166.31 137.363C165.175 137.434 164.037 137.416 162.899 137.416C133.768 137.419 99.8259 137.419 70.6951 137.416C63.8757 137.416 61.5874 135.15 61.6706 128.274C61.7047 125.49 64.1594 84.6722 64.6964 81.9565C65.8651 76.0524 68.9779 71.2792 74.7232 69.0628C82.5032 66.0673 90.4686 63.5521 98.8047 60.6738L111.842 95.565L114.414 72.2399L111.044 68.7527C110.976 68.6619 110.908 68.5712 110.885 68.4577C110.477 65.9992 112.391 63.7412 114.894 63.7412H119.656C121.933 63.7412 123.711 65.587 123.711 67.7731C123.711 68 123.711 68.227 123.665 68.4577C123.643 68.5712 123.597 68.6619 123.529 68.7527L120.522 72.1227V72.8073L122.795 95.6407L135.939 61.071Z" fill="#5CDEFF"/>
<path d="M212.057 21.4379V20.8441C212.057 20.7382 212.057 20.6512 212.038 20.5491C212.144 20.8441 212.265 21.1051 212.352 21.385C212.507 21.7859 212.631 22.2057 212.771 22.6029C212.771 22.5348 212.752 22.4629 212.752 22.3948C212.56 21.472 212.333 20.5491 212.004 19.6603C211.951 18.7374 211.83 17.8486 211.622 16.9597C211.64 17.0127 211.675 17.0656 211.709 17.1148C211.656 16.9597 211.622 16.8009 211.554 16.6458C211.519 16.5399 211.485 16.4529 211.448 16.3659C211.221 15.791 210.941 15.2502 210.612 14.7471C210.317 14.3122 209.984 13.8923 209.602 13.5293C209.409 13.3742 209.254 13.1813 209.114 12.9884C208.573 12.1676 207.964 11.4377 207.23 10.8439C206.777 10.477 206.273 10.1631 205.699 9.90208C205.056 9.6222 204.39 9.34609 203.747 9.0662C203.592 8.99812 203.414 8.92626 203.259 8.85818C205.105 8.99812 206.848 9.52007 208.539 10.2349C208.872 10.3749 209.182 10.5148 209.515 10.6699C209.447 10.6018 209.375 10.5488 209.307 10.4959C208.959 10.269 208.611 10.0609 208.263 9.86804C206.504 8.91113 204.606 8.3854 202.601 8.16225C201.712 8.05635 200.789 8.05635 199.934 7.70838C199.639 7.58735 199.307 7.5344 198.993 7.44741C198.906 7.4285 198.838 7.41337 198.747 7.37933C198.38 7.29234 197.998 7.20534 197.631 7.09944V7.03136H201.795C201.761 6.94437 201.727 6.92546 201.689 6.92546C199.893 6.66448 198.119 6.45646 196.304 6.63044H196.235C195.608 6.6834 194.98 6.71744 194.352 6.63044C194.091 6.5964 193.796 6.57749 193.531 6.56236C193.512 6.52832 193.512 6.50941 193.512 6.49428V6.47537C194.87 6.22952 196.232 5.96855 197.676 5.70757C196.232 5.74162 194.87 5.82861 193.531 6.07445C192.782 6.19548 192.048 6.44133 191.3 6.54345C190.218 6.68339 189.121 6.73635 188.039 6.82334C190.184 5.81348 192.483 5.35961 194.836 5.09863C194.401 5.11754 193.966 5.09863 193.512 5.11754C191.893 5.20454 190.271 5.39743 188.701 5.83239C187.393 6.18036 186.156 6.68718 185.093 7.53818C184.885 7.71216 184.639 7.81807 184.412 7.95801C184.393 7.92397 184.378 7.88993 184.344 7.85211C184.832 7.50414 185.32 7.12213 185.827 6.7893C186.349 6.47537 186.89 6.18035 187.445 5.91938C187.986 5.67353 188.561 5.46551 189.102 5.23858C188.005 5.51846 186.958 5.90047 185.948 6.40729C184.291 7.20913 182.952 8.49887 181.557 9.66758C181.277 9.91343 180.982 10.1555 180.687 10.3824L180.668 10.4013C180.562 10.5753 180.441 10.7682 180.335 10.9422C180.195 11.2221 180.074 11.536 179.915 11.797C179.828 11.918 179.669 12.005 179.533 12.058C179.253 12.179 178.939 12.2509 178.663 12.3719C178.595 12.4059 178.523 12.44 178.455 12.4778C178.122 12.6518 177.812 12.8447 177.547 13.0527C176.711 13.7335 176.171 14.6564 175.91 15.7873C176.258 15.0724 176.73 14.4294 177.392 13.8545C177.199 14.4635 177.059 15.0232 176.885 15.5641C176.817 15.7721 176.711 15.9991 176.59 16.192C176.242 16.7328 175.963 17.3077 175.755 17.9885C176.034 17.5006 176.277 17.0808 176.537 16.6647C176.556 16.6836 176.572 16.6988 176.59 16.6988C176.572 16.8198 176.537 16.9257 176.522 17.0467C175.913 19.6943 175.565 22.3608 175.686 25.0954C175.739 26.404 175.913 27.6559 176.367 28.8587V37.346C176.367 40.3794 177.464 43.322 179.45 45.6216C179.938 46.1965 180.358 46.8243 180.706 47.4862L182.135 50.3267C184.454 54.8919 189.072 57.7512 194.212 57.7512C199.333 57.7512 203.97 54.8919 206.289 50.3267L207.718 47.4862C208.066 46.8243 208.486 46.1965 208.974 45.6216C210.96 43.322 212.057 40.3756 212.057 37.346V29.7173C212.11 29.5622 212.162 29.4033 212.196 29.2293C212.616 27.3117 212.529 25.3941 212.336 23.4803C212.265 22.7995 212.159 22.1376 212.057 21.4379ZM203.588 22.3267C205.12 22.3797 208.573 23.0416 208.573 27.6748V37.3271C208.573 39.5208 207.79 41.6654 206.342 43.3371C205.661 44.1049 205.086 44.9748 204.617 45.8977L203.187 48.7192C201.462 52.1346 198.028 54.2413 194.212 54.2413C190.396 54.2413 186.965 52.1346 185.237 48.7192L183.807 45.8977C183.338 44.9748 182.763 44.1011 182.082 43.3182C180.637 41.6616 179.851 39.5208 179.851 37.3233V31.9374C179.851 31.7105 179.87 31.5025 179.87 31.2755C179.889 31.1545 179.87 31.0146 179.904 30.8935V27.0092C179.904 27.0092 180.199 22.3381 184.189 22.3381C184.189 22.3381 190.479 25.0916 194.522 25.1105C197.786 25.1294 200.85 24.1233 203.588 22.3267Z" fill="#5CDEFF"/>
<path d="M232.655 78.8346C232.318 74.7611 231.395 70.854 227.76 68.3729C221.667 64.2124 214.409 63.2253 207.749 60.971L198.229 86.0208L196.58 69.4773V68.9818L198.758 66.5385C198.807 66.4742 198.841 66.4061 198.857 66.3229C198.891 66.1565 198.891 65.9939 198.891 65.8274C198.891 64.2427 197.605 62.9075 195.952 62.9075H192.502C190.687 62.9075 189.299 64.5415 189.598 66.3229C189.613 66.4061 189.662 66.4704 189.715 66.5385L192.158 69.065L190.294 85.9641L180.849 60.6836C176.451 62.2003 172.195 63.5846 168.031 65.0596C175.796 70.4531 177.423 78.5887 177.963 85.0942C177.982 85.3211 179.038 102.901 179.764 116.29C195.71 116.29 212.363 116.29 227.288 116.29C228.112 116.29 228.937 116.301 229.757 116.252C232.481 116.082 234.357 114.191 234.432 111.487C234.481 109.773 232.795 80.5366 232.655 78.8346Z" fill="#5CDEFF"/>
<path d="M58.1193 21.4329V20.8391C58.1193 20.7332 58.1193 20.6462 58.1004 20.5441C58.2063 20.8391 58.3273 21.1001 58.4143 21.38C58.5694 21.7809 58.6942 22.2007 58.8341 22.5978C58.8341 22.5298 58.8152 22.4579 58.8152 22.3898C58.6223 21.467 58.3954 20.5441 58.0663 19.6553C58.0134 18.7324 57.8924 17.8436 57.6843 16.9547C57.7032 17.0077 57.7373 17.0606 57.7713 17.1098C57.7184 16.9547 57.6843 16.7959 57.6162 16.6408C57.5822 16.5349 57.5482 16.4479 57.5103 16.3609C57.2834 15.786 57.0035 15.2452 56.6745 14.7421C56.3795 14.3072 56.0466 13.8873 55.6646 13.5242C55.4717 13.3692 55.3166 13.1763 55.1767 12.9834C54.6358 12.1626 54.0269 11.4327 53.2931 10.8389C52.8393 10.472 52.3362 10.1581 51.7613 9.89708C51.1184 9.61719 50.4527 9.34109 49.8097 9.0612C49.6546 8.99312 49.4769 8.92126 49.3218 8.85317C51.1675 8.99312 52.9111 9.51507 54.6018 10.2299C54.9346 10.3699 55.2448 10.5098 55.5776 10.6649C55.5095 10.5968 55.4377 10.5438 55.3696 10.4909C55.0216 10.264 54.6737 10.0559 54.3257 9.86303C52.567 8.90613 50.6683 8.38039 48.6637 8.15724C47.7748 8.05134 46.852 8.05134 45.9972 7.70337C45.7022 7.58234 45.3693 7.52939 45.0554 7.4424C44.9684 7.42349 44.9003 7.40836 44.8096 7.37432C44.4427 7.28733 44.0607 7.20033 43.6938 7.09443V7.02257H47.8581C47.824 6.93558 47.79 6.91667 47.7522 6.91667C45.9556 6.65569 44.1817 6.44767 42.3662 6.62165H42.2982C41.6703 6.6746 41.0425 6.70864 40.4146 6.62165C40.1536 6.58761 39.8586 6.5687 39.5939 6.55357C39.5749 6.51953 39.5749 6.50062 39.5749 6.48549V6.46658C40.9328 6.22074 42.2944 5.95976 43.7392 5.69879C42.2944 5.73283 40.9328 5.81982 39.5939 6.06566C38.845 6.1867 38.1112 6.43254 37.3623 6.53466C36.2806 6.6746 35.1838 6.72756 34.102 6.81455C36.2466 5.80469 38.5462 5.35082 40.8987 5.08984C40.4638 5.10875 40.0288 5.08984 39.5749 5.10876C37.9561 5.19575 36.3336 5.38864 34.7639 5.8236C33.4553 6.17157 32.2185 6.67839 31.1557 7.52939C30.9477 7.70338 30.7018 7.80928 30.4749 7.94922C30.456 7.91518 30.4408 7.88114 30.4068 7.84332C30.8947 7.49535 31.3826 7.11335 31.8894 6.78051C32.4114 6.46658 32.9522 6.17157 33.5082 5.91059C34.0491 5.66474 34.624 5.45672 35.1649 5.22979C34.068 5.50967 33.0203 5.89168 32.0105 6.3985C30.3538 7.20033 29.0149 8.49008 27.6193 9.65879C27.3394 9.90464 27.0444 10.1467 26.7494 10.3736L26.7304 10.3925C26.6245 10.5665 26.5035 10.7594 26.3976 10.9334C26.2577 11.2133 26.1366 11.5272 25.9778 11.7882C25.8908 11.9092 25.7319 11.9962 25.5958 12.0492C25.3159 12.1702 25.002 12.2421 24.7259 12.3631C24.6578 12.3971 24.5859 12.4312 24.5178 12.469C24.185 12.643 23.8749 12.8359 23.6101 13.0439C22.7742 13.7247 22.2334 14.6476 21.9724 15.7785C22.3204 15.0636 22.7931 14.4206 23.455 13.8457C23.2621 14.4547 23.1222 15.0144 22.9482 15.5553C22.8801 15.7633 22.7742 15.9903 22.6532 16.1832C22.3052 16.724 22.0253 17.2989 21.8173 17.9797C22.0972 17.4918 22.3393 17.072 22.6002 16.6559C22.6192 16.6749 22.6343 16.69 22.6532 16.69C22.6343 16.811 22.6002 16.9169 22.5851 17.0379C21.9762 19.6855 21.6282 22.352 21.7492 25.0866C21.8022 26.3952 21.9762 27.6471 22.43 28.8499V37.3372C22.43 40.3706 23.5269 43.3132 25.5126 45.6128C26.0005 46.1877 26.4203 46.8155 26.7683 47.4774L28.198 50.3179C30.5165 54.8831 35.1346 57.7424 40.2747 57.7424C45.3958 57.7424 50.0329 54.8831 52.3514 50.3179L53.781 47.4774C54.129 46.8155 54.5488 46.1877 55.0368 45.6128C57.0224 43.3132 58.1193 40.3668 58.1193 37.3372V29.7236C58.1722 29.5685 58.2252 29.4097 58.2592 29.2357C58.6791 27.3181 58.5921 25.4005 58.3992 23.4867C58.3273 22.7907 58.2214 22.1288 58.1193 21.4329ZM49.6508 22.3217C51.1826 22.3747 54.6358 23.0366 54.6358 27.6698V37.3221C54.6358 39.5158 53.8529 41.6604 52.4043 43.3321C51.7235 44.0999 51.1486 44.9698 50.6796 45.8927L49.2499 48.7142C47.5252 52.1296 44.0909 54.2363 40.2747 54.2363C36.4584 54.2363 33.0279 52.1296 31.2994 48.7142L29.8697 45.8927C29.4007 44.9698 28.8258 44.0961 28.145 43.3132C26.7002 41.6566 25.9135 39.5158 25.9135 37.3183V31.9324C25.9135 31.7055 25.9324 31.4975 25.9324 31.2705C25.9513 31.1495 25.9324 31.0096 25.9664 30.8885V27.0042C25.9664 27.0042 26.2615 22.3331 30.2517 22.3331C30.2517 22.3331 36.5416 25.0866 40.5848 25.1055C43.8451 25.1206 46.9125 24.1145 49.6508 22.3217Z" fill="#5CDEFF"/>
<path d="M57.1702 80.4712C58.5015 73.7388 61.7883 68.3491 66.622 64.8127C62.4048 63.2998 57.9909 62.3807 53.8116 60.9662L44.2916 86.016L42.6426 69.4724V68.977L44.8212 66.5336C44.8703 66.4693 44.9044 66.4012 44.9195 66.318C44.9535 66.1516 44.9535 65.989 44.9535 65.8226C44.9535 64.2378 43.6676 62.9027 42.0147 62.9027H38.5653C36.7499 62.9027 35.3618 64.5366 35.6606 66.318C35.6757 66.4012 35.7249 66.4655 35.7778 66.5336L38.2212 69.0602L36.3565 85.9592L26.9122 60.6787C20.8682 62.7627 15.0965 64.5858 9.46098 66.7568C5.29673 68.3604 3.04251 71.8174 2.19529 76.0989C1.80572 78.0657 0.0280634 107.639 0.00158765 109.659C-0.0589282 114.644 1.60148 116.281 6.54108 116.281C21.6511 116.281 38.5313 116.281 54.6588 116.281C55.419 103.063 56.6293 83.2095 57.1702 80.4712Z" fill="#5CDEFF"/>
<path d="M125.435 36.8671C124.879 37.8656 124.119 38.6788 123.162 39.2953C122.205 39.9156 121.093 40.3619 119.822 40.6305C119.436 40.7137 119.039 40.7818 118.638 40.8385V42.809H115.794V41.0352C114.345 41.0352 112.973 40.9141 111.668 40.6683C110.923 40.5283 110.238 40.3468 109.606 40.1274C108.812 39.8513 108.271 39.1062 108.271 38.2628V35.6417C108.271 34.855 109.13 34.3671 109.807 34.7718C110.427 35.1424 111.078 35.4488 111.751 35.6909C113.003 36.1372 114.266 36.3603 115.544 36.3603C115.631 36.3603 115.715 36.3603 115.798 36.3565C116.441 36.3452 117.012 36.2771 117.507 36.1561C117.942 36.0502 118.321 35.914 118.642 35.7476C118.733 35.6984 118.82 35.6493 118.903 35.5963C119.278 35.358 119.557 35.0743 119.743 34.7491C119.928 34.4238 120.019 34.0721 120.019 33.69C120.019 33.1757 119.871 32.7142 119.576 32.3095C119.338 31.9805 119.024 31.6703 118.642 31.3791C118.555 31.311 118.464 31.2467 118.37 31.1824C117.859 30.8382 117.258 30.5092 116.558 30.1915C116.312 30.078 116.059 29.9645 115.798 29.8511C115.321 29.643 114.818 29.4312 114.293 29.2157C112.231 28.3571 110.692 27.3094 109.682 26.0688C108.668 24.8283 108.165 23.3343 108.165 21.5793C108.165 20.2064 108.441 19.0225 108.994 18.0353C109.546 17.0482 110.298 16.235 111.248 15.5958C112.201 14.9566 113.302 14.4876 114.553 14.1888C114.962 14.0905 115.378 14.011 115.802 13.943V11.9648H118.646V13.7387C119.973 13.7425 121.154 13.8257 122.186 13.9883C122.682 14.0678 123.162 14.1623 123.623 14.2796C124.501 14.5027 125.121 15.2894 125.121 16.1934V18.5081C125.121 19.2532 124.353 19.7487 123.676 19.4423C123.154 19.2078 122.617 19.0149 122.065 18.8637C121.513 18.7124 120.964 18.5989 120.416 18.5233C119.871 18.4514 119.353 18.4136 118.861 18.4136C118.79 18.4136 118.718 18.4136 118.646 18.4173C118.056 18.4287 117.511 18.493 117.02 18.6065C116.551 18.7161 116.146 18.8637 115.798 19.049C115.737 19.0792 115.677 19.1133 115.62 19.1511C115.242 19.3818 114.947 19.6617 114.739 19.987C114.531 20.3123 114.425 20.6791 114.425 21.0838C114.425 21.5264 114.542 21.9197 114.773 22.2715C115.007 22.6194 115.336 22.9523 115.768 23.2662C115.779 23.2738 115.79 23.2813 115.798 23.2889C116.221 23.5915 116.732 23.894 117.33 24.1853C117.734 24.3857 118.169 24.5862 118.642 24.7904C118.888 24.8963 119.145 25.006 119.41 25.1157C120.465 25.5582 121.414 26.0272 122.254 26.5227C123.094 27.0182 123.816 27.5817 124.418 28.2058C125.019 28.8336 125.477 29.5447 125.798 30.3503C126.12 31.1559 126.278 32.0902 126.278 33.1568C126.271 34.6318 125.991 35.8686 125.435 36.8671Z" fill="#5CDEFF"/>
<path d="M117.217 0C102.088 0 89.8259 12.262 89.8259 27.391C89.8259 42.5162 102.088 54.782 117.217 54.782C132.346 54.782 144.608 42.52 144.608 27.391C144.608 12.2658 132.342 0 117.217 0ZM117.217 48.893C105.344 48.893 95.7187 39.2672 95.7187 27.3948C95.7187 15.5223 105.344 5.89652 117.217 5.89652C129.089 5.89652 138.715 15.5223 138.715 27.3948C138.715 39.2672 129.089 48.893 117.217 48.893Z" fill="#5CDEFF"/>
</svg>
