<svg width="16" height="13" viewBox="0 0 16 13" fill="none" xmlns="http://www.w3.org/2000/svg">
<path fill-rule="evenodd" clip-rule="evenodd" d="M15.4825 1.62798C14.9374 1.87623 14.3506 2.0441 13.7351 2.11911C14.3637 1.73335 14.846 1.12168 15.0733 0.393027C14.4847 0.750209 13.8344 1.01006 13.1396 1.14936C12.5859 0.543041 11.7945 0.164429 10.9186 0.164429C9.23922 0.164429 7.87669 1.5619 7.87669 3.2853C7.87669 3.52997 7.90281 3.7675 7.95505 3.9961C5.42589 3.86573 3.18404 2.62452 1.68222 0.734133C1.42016 1.19668 1.27041 1.73335 1.27041 2.30484C1.27041 3.3871 1.80759 4.34257 2.62423 4.90245C2.12624 4.88727 1.6561 4.74529 1.24516 4.51312V4.55152C1.24516 6.06418 2.29426 7.32593 3.68726 7.61167C3.43217 7.68489 3.16314 7.7215 2.88542 7.7215C2.68953 7.7215 2.49799 7.70275 2.31255 7.66614C2.69997 8.90556 3.82307 9.80834 5.15512 9.83245C4.11386 10.67 2.80096 11.1692 1.37575 11.1692C1.13024 11.1692 0.887338 11.1549 0.649658 11.1263C1.99651 12.0104 3.59671 12.5274 5.31445 12.5274C10.9126 12.5274 13.9728 7.7724 13.9728 3.64785C13.9728 3.51212 13.9702 3.37639 13.965 3.24334C14.5596 2.80311 15.0759 2.25395 15.4825 1.62798Z" fill="white"/>
</svg>
