<svg width="65" height="61" viewBox="0 0 65 61" fill="none" xmlns="http://www.w3.org/2000/svg">
<path d="M64.2629 1.79307C64.2018 2.35999 64.1406 2.92691 64.059 3.47493C63.5697 6.97095 62.8358 10.4103 61.5513 13.7551C61.5309 13.8118 61.4901 13.8874 61.4494 13.9819C57.5553 10.3347 53.6 6.80087 49.8078 3.04029C54.5174 1.43402 59.329 0.621431 64.2629 0.451355C64.2629 0.904892 64.2629 1.33953 64.2629 1.79307Z" fill="#5CDEFF"/>
<path d="M43.1818 6.21497C43.2837 6.29056 43.3856 6.36615 43.4876 6.46063C44.9351 7.76456 46.4031 9.04959 47.8506 10.3724C51.2962 13.5094 54.7214 16.6464 58.1466 19.7833C58.3505 19.9723 58.3505 20.0857 58.2078 20.3125C52.5399 28.8541 44.7924 35.4116 35.6382 40.6273C32.6819 42.3091 29.5626 43.7075 26.4432 45.0871C26.0558 45.2571 25.8112 45.2193 25.5053 44.9359C23.4258 43.0272 21.3258 41.1375 19.2258 39.2288C18.186 38.284 17.1666 37.3013 16.1064 36.3564C15.923 36.1863 15.8822 36.0352 15.9841 35.8273C16.5346 34.7501 17.0443 33.6541 17.5948 32.5769C20.3879 27.2667 23.8743 22.3912 28.0538 17.9314C32.1111 13.6228 36.6984 9.88107 41.9177 6.81968C42.2439 6.63071 42.5701 6.46063 42.9167 6.29056C43.0187 6.27166 43.0798 6.25276 43.1818 6.21497ZM41.9177 26.2274C44.9963 26.3597 47.1778 23.8841 47.1778 21.4841C47.1574 18.7818 44.8332 16.7031 41.7546 16.7031C39.1857 16.7031 36.8615 18.933 36.8411 21.4463C36.8411 24.3187 39.675 26.4164 41.9177 26.2274Z" fill="#5CDEFF"/>
<path d="M14.8015 33.144C14.4141 32.8605 14.1083 32.6337 13.8024 32.3881C11.6413 30.7251 9.23551 30.5172 6.64623 31.3109C4.42393 31.9912 2.40551 33.0684 0.44826 34.2211C0.325932 34.2967 0.203604 34.3534 0.0201111 34.3723C0.101663 34.24 0.162827 34.0889 0.264768 33.9566C2.4259 30.4038 4.9948 27.1534 8.2365 24.3755C10.6627 22.2968 13.4355 20.7472 16.6364 19.8779C18.2674 19.4243 19.8985 19.5944 21.5295 19.9346C21.9577 20.0291 22.3654 20.1235 22.8751 20.2558C19.8373 24.4133 16.9218 28.533 14.8015 33.144Z" fill="#5CDEFF"/>
<path d="M42.9574 38.7943C43.0594 39.3801 43.2021 39.8715 43.2428 40.3817C43.3856 42.0825 43.4671 43.8021 42.8962 45.4651C42.0807 47.8272 40.7759 49.9437 39.0429 51.8146C36.8818 54.1768 34.2925 56.0854 31.5401 57.805C30.3576 58.542 29.1139 59.2035 27.8906 59.9027C27.8091 59.9405 27.7275 59.9782 27.544 60.0538C27.6664 59.8649 27.7479 59.7326 27.8295 59.6192C29.1343 57.7295 30.276 55.7641 31.0304 53.6287C31.9071 51.1721 31.377 48.98 29.6032 47.0336C29.4197 46.8257 29.2362 46.6367 29.012 46.391C33.8847 44.2368 38.5332 41.799 42.9574 38.7943Z" fill="#5CDEFF"/>
<path d="M45.4448 4.91119C46.036 4.60883 46.6069 4.32537 47.1981 4.0608C47.2797 4.02301 47.4836 4.13639 47.5651 4.23088C48.768 5.30803 49.9709 6.38519 51.1534 7.46234C54.232 10.297 57.2902 13.1316 60.3688 15.9662C60.5115 16.0985 60.5523 16.193 60.4504 16.3819C60.1242 16.93 59.8387 17.478 59.5941 17.9315C54.9048 13.604 50.2156 9.29539 45.4448 4.91119Z" fill="#5CDEFF"/>
<path d="M20.9996 46.9769C20.4491 47.2603 19.9394 47.5249 19.4297 47.7517C19.3278 47.7895 19.1239 47.7139 19.0219 47.6383C17.8802 46.6178 16.7181 45.5785 15.5967 44.558C14.5366 43.5754 13.4764 42.5927 12.3958 41.5912C12.7016 41.0809 13.0278 40.5707 13.3744 40.0038C16.0045 42.2715 18.4511 44.6336 20.9996 46.9769Z" fill="#5CDEFF"/>
<path d="M3.32299 57.2003C2.99678 56.898 2.6298 56.5767 2.30359 56.2554C5.25986 53.5153 8.23652 50.7563 11.1928 48.0161C11.519 48.3185 11.8656 48.6586 12.1918 48.9799C9.25592 51.7011 6.27926 54.4602 3.32299 57.2003Z" fill="#5CDEFF"/>
<path d="M13.4968 50.1136C13.823 50.4538 14.1493 50.7751 14.4958 51.1341C14.5162 51.1152 14.4755 51.153 14.4551 51.1908C12.3755 53.0995 10.3163 54.9893 8.23672 56.898C7.80857 57.2949 7.78818 57.276 7.33964 56.898C6.76878 56.4067 6.74839 56.3878 7.29887 55.8775C9.27651 54.0255 11.2541 52.1924 13.2318 50.3404C13.293 50.2648 13.3745 50.2081 13.4968 50.1136Z" fill="#5CDEFF"/>
<path d="M4.50574 52.0791C4.46496 52.0413 4.44457 52.0224 4.4038 52.0035C4.07759 51.7011 3.75138 51.3988 3.42517 51.0964C3.46595 51.0586 3.48633 51.0019 3.52711 50.9641C5.23971 49.3956 6.9523 47.8272 8.66489 46.2776C8.9911 45.9752 9.03188 45.9752 9.37848 46.2776C10.0717 46.8256 10.0717 46.8445 9.43964 47.4492C7.82899 48.961 6.21833 50.4728 4.60768 51.9846C4.60768 52.0224 4.5669 52.0413 4.50574 52.0791Z" fill="#5CDEFF"/>
<path d="M5.72897 57.2949C6.07556 57.654 6.38138 57.9941 6.72798 58.372C6.46294 58.5988 6.15712 58.9012 5.81052 59.1657C5.72897 59.2224 5.56586 59.1657 5.44354 59.1657C5.42315 59.1657 5.40276 59.1468 5.38237 59.1279C4.44452 58.372 4.50569 58.4287 5.28043 57.6729C5.38237 57.5595 5.52509 57.465 5.72897 57.2949Z" fill="#5CDEFF"/>
<path d="M2.34442 52.1359C2.69101 52.4949 2.99683 52.8351 3.34343 53.1941C3.07839 53.4209 2.77257 53.7233 2.42597 53.969C2.34442 54.0257 2.16093 53.9879 2.01821 53.969C1.99782 53.969 1.97743 53.9501 1.95705 53.9312C1.03959 53.1941 1.10075 53.2319 1.85511 52.5138C2.01821 52.4004 2.16093 52.287 2.34442 52.1359Z" fill="#5CDEFF"/>
<path d="M-9.15527e-05 58.3342C0.366892 58.013 0.631936 57.7484 0.917368 57.5027C1.06008 57.3515 1.18241 57.3326 1.34552 57.4838C1.63095 57.7484 1.91638 57.9941 2.2222 58.2586C2.16103 58.3342 2.12026 58.3909 2.07948 58.4287C1.77366 58.7122 1.46784 58.9957 1.16202 59.2981C1.08047 59.2414 1.0397 59.2036 0.99892 59.1658C0.672712 58.9012 0.346504 58.6366 -9.15527e-05 58.3342Z" fill="#5CDEFF"/>
<path d="M41.9992 18.8386C40.4497 18.8386 39.1653 19.9914 39.1653 21.3898C39.1653 22.8827 40.4089 24.0733 41.9992 24.0733C43.5895 24.0922 44.8739 22.9205 44.8739 21.4465C44.8943 20.0103 43.6098 18.8575 41.9992 18.8386Z" fill="#5CDEFF"/>
<path d="M41.9992 18.8386C43.6099 18.8386 44.8943 20.0102 44.8739 21.4464C44.8535 22.9015 43.5691 24.0731 41.9992 24.0731C40.3886 24.0542 39.1449 22.8826 39.1653 21.3897C39.1653 19.9913 40.4497 18.8386 41.9992 18.8386Z" fill="#5CDEFF"/>
</svg>
